<?xml version="1.0" encoding="UTF-8" standalone="no"?>
<!-- Creator: CorelDRAW -->

<svg
   xmlns:dc="http://purl.org/dc/elements/1.1/"
   xmlns:cc="http://creativecommons.org/ns#"
   xmlns:rdf="http://www.w3.org/1999/02/22-rdf-syntax-ns#"
   xmlns:svg="http://www.w3.org/2000/svg"
   xmlns="http://www.w3.org/2000/svg"
   xmlns:sodipodi="http://sodipodi.sourceforge.net/DTD/sodipodi-0.dtd"
   xmlns:inkscape="http://www.inkscape.org/namespaces/inkscape"
   xml:space="preserve"
   width="200mm"
   height="200mm"
   style="shape-rendering:geometricPrecision; text-rendering:geometricPrecision; image-rendering:optimizeQuality; fill-rule:evenodd; clip-rule:evenodd"
   viewBox="0 0 200 200"
   id="svg4401"
   version="1.1"
   inkscape:version="0.48.4 r9939"
   sodipodi:docname="mezicas3.svg"><metadata
     id="metadata4418"><rdf:RDF><cc:Work
         rdf:about=""><dc:format>image/svg+xml</dc:format><dc:type
           rdf:resource="http://purl.org/dc/dcmitype/StillImage" /><dc:title></dc:title></cc:Work></rdf:RDF></metadata><sodipodi:namedview
     pagecolor="#ffffff"
     bordercolor="#666666"
     borderopacity="1"
     objecttolerance="10"
     gridtolerance="10"
     guidetolerance="10"
     inkscape:pageopacity="0"
     inkscape:pageshadow="2"
     inkscape:window-width="1920"
     inkscape:window-height="1056"
     id="namedview4416"
     showgrid="false"
     inkscape:zoom="0.94192905"
     inkscape:cx="195.52824"
     inkscape:cy="407.53666"
     inkscape:window-x="0"
     inkscape:window-y="24"
     inkscape:window-maximized="1"
     inkscape:current-layer="svg4401" /><defs
     id="defs4403"><style
       type="text/css"
       id="style4405">
    .fil4 {fill:#28166F}
    .fil2 {fill:#DA251D}
    .fil1 {fill:white}
    .fil0 {fill:#7ED3EB}
    .fil3 {fill:#1F1A17;fill-rule:nonzero}
   </style><style
       id="style4405-6"
       type="text/css">
    .fil4 {fill:#28166F}
    .fil2 {fill:#DA251D}
    .fil1 {fill:white}
    .fil0 {fill:#7ED3EB}
    .fil3 {fill:#1F1A17;fill-rule:nonzero}
   </style></defs><g
     style="fill-rule:evenodd"
     id="g5668"
     transform="translate(0.01849305,0.03574748)"><path
       style="fill:#7ed3eb;fill-opacity:1"
       inkscape:connector-curvature="0"
       d="m 13.806673,198.50688 c 57.809724,0 115.619447,0 173.429897,0 3.11804,-33.68756 7.18068,-67.48073 11.62709,-101.317186 C 173.41169,87.702721 165.37704,52.840508 166.15355,5.1414127 155.84247,4.1167305 145.53151,3.0920483 135.22055,2.0673661 131.00924,20.847452 121.23682,38.206626 100.52294,38.991173 79.80906,39.7756 67.682275,15.65019 65.824132,2.0673661 55.51257,3.0920483 45.201128,4.1167305 34.889686,5.1414127 35.103327,53.828025 26.500648,88.235743 2.181739,97.189694 6.6490034,130.83277 10.952621,164.51145 13.807272,198.50688 z m 25.022771,-93.57231 123.385076,0 c 4.49507,0 8.17288,3.67781 8.17288,8.17289 l 0,65.38376 c 0,4.49508 -3.67781,8.17289 -8.17288,8.17289 l -123.385076,0 c -4.495079,0 -8.172881,-3.67781 -8.172881,-8.17289 l 0,-65.38376 c 0,-4.49508 3.677802,-8.17289 8.172881,-8.17289 z"
       class="fil2"
       id="_125105512-7" /></g><path
     style="fill:#800000;fill-opacity:1"
     d="m 175.78125,13.03125 c -17.38301,1.727403 -34.77329,3.460097 -52.15625,5.1875 0.0972,22.15558 -0.32741,43.472323 -1.3125,63.875 l 140.40625,0 C 247.58669,59.268945 237.96268,33.509725 234.1875,13.03125 z m 302,0 c -6.04209,24.903343 -14.93309,48.874898 -27.71875,69.0625 l 139.25,0 c -0.77677,-20.45225 -0.95366,-41.766738 -0.59375,-63.875 -17.37695,-1.726865 -34.7482,-3.460635 -52.125,-5.1875 z M 121.0625,103.125 c -1.72403,24.53793 -4.33904,47.61101 -7.96875,69.0625 l 484.71875,0 c -3.52083,-21.5004 -5.95136,-44.59777 -7.4375,-69.0625 l -156.46875,0 c -19.11789,20.41713 -44.42638,33.77029 -77.71875,35.03125 -31.38577,1.18857 -57.20796,-13.76269 -77,-35.03125 z"
     transform="scale(0.28222221,0.28222221)"
     id="_125105512"
     inkscape:connector-curvature="0"
     sodipodi:nodetypes="cccccccccccccccccscc" /></svg>