<?xml version="1.0" encoding="UTF-8" standalone="no"?>
<!-- Creator: CorelDRAW -->

<svg
   xmlns:dc="http://purl.org/dc/elements/1.1/"
   xmlns:cc="http://creativecommons.org/ns#"
   xmlns:rdf="http://www.w3.org/1999/02/22-rdf-syntax-ns#"
   xmlns:svg="http://www.w3.org/2000/svg"
   xmlns="http://www.w3.org/2000/svg"
   xmlns:sodipodi="http://sodipodi.sourceforge.net/DTD/sodipodi-0.dtd"
   xmlns:inkscape="http://www.inkscape.org/namespaces/inkscape"
   xml:space="preserve"
   width="200mm"
   height="200mm"
   style="shape-rendering:geometricPrecision; text-rendering:geometricPrecision; image-rendering:optimizeQuality; fill-rule:evenodd; clip-rule:evenodd"
   viewBox="0 0 200 200"
   id="svg4401"
   version="1.1"
   inkscape:version="0.48.4 r9939"
   sodipodi:docname="mezicas1.svg"><metadata
     id="metadata4418"><rdf:RDF><cc:Work
         rdf:about=""><dc:format>image/svg+xml</dc:format><dc:type
           rdf:resource="http://purl.org/dc/dcmitype/StillImage" /><dc:title></dc:title></cc:Work></rdf:RDF></metadata><sodipodi:namedview
     pagecolor="#ffffff"
     bordercolor="#666666"
     borderopacity="1"
     objecttolerance="10"
     gridtolerance="10"
     guidetolerance="10"
     inkscape:pageopacity="0"
     inkscape:pageshadow="2"
     inkscape:window-width="1920"
     inkscape:window-height="1056"
     id="namedview4416"
     showgrid="false"
     inkscape:zoom="0.94192905"
     inkscape:cx="195.52824"
     inkscape:cy="462.0023"
     inkscape:window-x="0"
     inkscape:window-y="24"
     inkscape:window-maximized="1"
     inkscape:current-layer="svg4401" /><defs
     id="defs4403"><style
       type="text/css"
       id="style4405">
    .fil4 {fill:#28166F}
    .fil2 {fill:#DA251D}
    .fil1 {fill:white}
    .fil0 {fill:#7ED3EB}
    .fil3 {fill:#1F1A17;fill-rule:nonzero}
   </style><style
       id="style4405-6"
       type="text/css">
    .fil4 {fill:#28166F}
    .fil2 {fill:#DA251D}
    .fil1 {fill:white}
    .fil0 {fill:#7ED3EB}
    .fil3 {fill:#1F1A17;fill-rule:nonzero}
   </style></defs><g
     style="fill-rule:evenodd"
     id="g5668"
     transform="translate(0.01849305,0.03574748)"><path
       style="fill:#7ed3eb;fill-opacity:1"
       inkscape:connector-curvature="0"
       d="m 13.806673,198.50688 c 57.809724,0 115.619447,0 173.429897,0 3.11804,-33.68756 7.18068,-67.48073 11.62709,-101.317186 C 173.41169,87.702721 165.37704,52.840508 166.15355,5.1414127 155.84247,4.1167305 145.53151,3.0920483 135.22055,2.0673661 131.00924,20.847452 121.23682,38.206626 100.52294,38.991173 79.80906,39.7756 67.682275,15.65019 65.824132,2.0673661 55.51257,3.0920483 45.201128,4.1167305 34.889686,5.1414127 35.103327,53.828025 26.500648,88.235743 2.181739,97.189694 6.6490034,130.83277 10.952621,164.51145 13.807272,198.50688 z m 25.022771,-93.57231 123.385076,0 c 4.49507,0 8.17288,3.67781 8.17288,8.17289 l 0,65.38376 c 0,4.49508 -3.67781,8.17289 -8.17288,8.17289 l -123.385076,0 c -4.495079,0 -8.172881,-3.67781 -8.172881,-8.17289 l 0,-65.38376 c 0,-4.49508 3.677802,-8.17289 8.172881,-8.17289 z"
       class="fil2"
       id="_125105512-7" /></g><path
     style="fill:#800000;fill-opacity:1"
     d="M 175.78125 13.03125 C 158.39824 14.758653 141.00796 16.491347 123.625 18.21875 C 123.72222 40.37433 123.29759 61.691073 122.3125 82.09375 L 262.71875 82.09375 C 247.58669 59.268945 237.96268 33.509725 234.1875 13.03125 L 175.78125 13.03125 z M 477.78125 13.03125 C 471.73916 37.934593 462.84816 61.906148 450.0625 82.09375 L 589.3125 82.09375 C 588.53573 61.6415 588.35884 40.327012 588.71875 18.21875 C 571.3418 16.491885 553.97055 14.758115 536.59375 13.03125 L 477.78125 13.03125 z M 121.0625 103.125 C 119.33847 127.66293 116.72346 150.73601 113.09375 172.1875 L 597.8125 172.1875 C 594.29167 150.6871 591.86114 127.58973 590.375 103.125 L 433.90625 103.125 C 414.78836 123.54213 389.47987 136.89529 356.1875 138.15625 C 324.80173 139.34482 298.97954 124.39356 279.1875 103.125 L 121.0625 103.125 z M 109.09375 193.21875 C 103.61779 219.0475 96.48698 242.18953 87.46875 262.28125 L 623.4375 262.28125 C 614.24083 242.11439 607.08631 218.96422 601.71875 193.21875 L 109.09375 193.21875 z M 76.6875 283.28125 C 59.377214 312.8304 36.688151 333.70879 7.71875 344.375 C 8.0713903 347.03074 8.4292357 349.68787 8.78125 352.34375 L 703.59375 352.34375 C 703.94159 349.68655 704.2758 347.03236 704.625 344.375 C 674.85408 333.27818 651.82348 312.37611 634.40625 283.28125 L 76.6875 283.28125 z M 11.5625 373.375 C 14.594 396.39069 17.603228 419.39922 20.53125 442.4375 L 108.625 442.4375 L 108.625 400.78125 C 108.625 388.10634 116.88391 377.27412 128.28125 373.375 L 11.5625 373.375 z M 584.09375 373.375 C 595.49108 377.27412 603.75 388.10634 603.75 400.78125 L 603.75 442.4375 L 692.09375 442.4375 C 694.94941 419.42495 697.8618 396.40175 700.84375 373.375 L 584.09375 373.375 z M 23.15625 463.46875 C 26.033532 486.46661 28.841992 509.49232 31.53125 532.53125 L 108.625 532.53125 L 108.625 463.46875 L 23.15625 463.46875 z M 603.75 463.46875 L 603.75 532.53125 L 681.3125 532.53125 C 683.96381 509.51656 686.71653 486.50177 689.53125 463.46875 L 603.75 463.46875 z M 33.96875 553.53125 C 36.582685 576.53857 39.064016 599.5583 41.40625 622.625 L 108.625 622.625 L 108.625 553.53125 L 33.96875 553.53125 z M 603.75 553.53125 L 603.75 622.625 L 671.40625 622.625 C 673.80498 599.60707 676.30666 576.57167 678.90625 553.53125 L 603.75 553.53125 z M 43.5 643.625 C 45.435477 663.51133 47.262826 683.43166 48.9375 703.375 L 663.4375 703.375 C 665.27985 683.47012 667.23072 663.54966 669.25 643.625 L 601.46875 643.625 C 597.07224 654.04335 586.7513 661.40625 574.78125 661.40625 L 137.59375 661.40625 C 125.62368 661.40625 115.2715 654.04335 110.875 643.625 L 43.5 643.625 z "
     transform="scale(0.28222221,0.28222221)"
     id="_125105512" /></svg>