<?xml version="1.0" encoding="UTF-8" standalone="no"?>
<!-- Creator: CorelDRAW -->

<svg
   xmlns:dc="http://purl.org/dc/elements/1.1/"
   xmlns:cc="http://creativecommons.org/ns#"
   xmlns:rdf="http://www.w3.org/1999/02/22-rdf-syntax-ns#"
   xmlns:svg="http://www.w3.org/2000/svg"
   xmlns="http://www.w3.org/2000/svg"
   xmlns:sodipodi="http://sodipodi.sourceforge.net/DTD/sodipodi-0.dtd"
   xmlns:inkscape="http://www.inkscape.org/namespaces/inkscape"
   xml:space="preserve"
   width="200mm"
   height="200mm"
   style="shape-rendering:geometricPrecision; text-rendering:geometricPrecision; image-rendering:optimizeQuality; fill-rule:evenodd; clip-rule:evenodd"
   viewBox="0 0 200 200"
   id="svg4236"
   version="1.1"
   inkscape:version="0.48.4 r9939"
   sodipodi:docname="startovka.svg"><metadata
     id="metadata4253"><rdf:RDF><cc:Work
         rdf:about=""><dc:format>image/svg+xml</dc:format><dc:type
           rdf:resource="http://purl.org/dc/dcmitype/StillImage" /><dc:title></dc:title></cc:Work></rdf:RDF></metadata><sodipodi:namedview
     pagecolor="#ffffff"
     bordercolor="#666666"
     borderopacity="1"
     objecttolerance="10"
     gridtolerance="10"
     guidetolerance="10"
     inkscape:pageopacity="0"
     inkscape:pageshadow="2"
     inkscape:window-width="640"
     inkscape:window-height="480"
     id="namedview4251"
     showgrid="false"
     inkscape:zoom="0.33302221"
     inkscape:cx="354.33072"
     inkscape:cy="354.33072"
     inkscape:window-x="0"
     inkscape:window-y="24"
     inkscape:window-maximized="0"
     inkscape:current-layer="svg4236" /><defs
     id="defs4238"><style
       type="text/css"
       id="style4240">
    .fil4 {fill:#28166F}
    .fil2 {fill:#DA251D}
    .fil1 {fill:white}
    .fil0 {fill:#7ED3EB}
    .fil3 {fill:#1F1A17;fill-rule:nonzero}
   </style></defs><path
     style="fill:#7ed3eb"
     inkscape:connector-curvature="0"
     id="path4244"
     d="m 21.0765,2.5313 157.847,0 c 10.7216,0 19.4937,8.7721 19.4937,19.4937 l 0,155.95 c 0,10.7216 -8.7721,19.4937 -19.4937,19.4937 l -157.847,0 c -10.7216,0 -19.4937,-8.7721 -19.4937,-19.4937 l 0,-155.95 c 0,-10.7216 8.7721,-19.4937 19.4937,-19.4937 z"
     class="fil0" /><polygon
     id="_125106352"
     class="fil4"
     points="151.198,148.77 131.277,148.77 131.277,168.69 151.198,168.69 151.198,188.611 171.118,188.611 171.118,168.69 191.039,168.69 191.039,148.77 171.118,148.77 171.118,128.849 151.198,128.849 "
     style="fill:#28166f"
     transform="matrix(1.9075548,0,0,1.9075548,-210.66649,-204.22566)" /></svg>