<?xml version="1.0" encoding="UTF-8" standalone="no"?>
<!-- Creator: CorelDRAW -->

<svg
   xmlns:dc="http://purl.org/dc/elements/1.1/"
   xmlns:cc="http://creativecommons.org/ns#"
   xmlns:rdf="http://www.w3.org/1999/02/22-rdf-syntax-ns#"
   xmlns:svg="http://www.w3.org/2000/svg"
   xmlns="http://www.w3.org/2000/svg"
   xmlns:sodipodi="http://sodipodi.sourceforge.net/DTD/sodipodi-0.dtd"
   xmlns:inkscape="http://www.inkscape.org/namespaces/inkscape"
   xml:space="preserve"
   width="200mm"
   height="200mm"
   style="shape-rendering:geometricPrecision; text-rendering:geometricPrecision; image-rendering:optimizeQuality; fill-rule:evenodd; clip-rule:evenodd"
   viewBox="0 0 200 200"
   id="svg4236"
   version="1.1"
   inkscape:version="0.48.4 r9939"
   sodipodi:docname="add.svg"><metadata
     id="metadata4253"><rdf:RDF><cc:Work
         rdf:about=""><dc:format>image/svg+xml</dc:format><dc:type
           rdf:resource="http://purl.org/dc/dcmitype/StillImage" /><dc:title></dc:title></cc:Work></rdf:RDF></metadata><sodipodi:namedview
     pagecolor="#ffffff"
     bordercolor="#666666"
     borderopacity="1"
     objecttolerance="10"
     gridtolerance="10"
     guidetolerance="10"
     inkscape:pageopacity="0"
     inkscape:pageshadow="2"
     inkscape:window-width="1920"
     inkscape:window-height="1056"
     id="namedview4251"
     showgrid="false"
     inkscape:zoom="0.33302221"
     inkscape:cx="-174.16256"
     inkscape:cy="354.33072"
     inkscape:window-x="0"
     inkscape:window-y="24"
     inkscape:window-maximized="1"
     inkscape:current-layer="svg4236" /><defs
     id="defs4238"><style
       type="text/css"
       id="style4240">
    .fil4 {fill:#28166F}
    .fil2 {fill:#DA251D}
    .fil1 {fill:white}
    .fil0 {fill:#7ED3EB}
    .fil3 {fill:#1F1A17;fill-rule:nonzero}
   </style></defs><path
     style="fill:#7ed3eb"
     inkscape:connector-curvature="0"
     id="path4244"
     d="m 21.0765,2.5313 157.847,0 c 10.7216,0 19.4937,8.7721 19.4937,19.4937 l 0,155.95 c 0,10.7216 -8.7721,19.4937 -19.4937,19.4937 l -157.847,0 c -10.7216,0 -19.4937,-8.7721 -19.4937,-19.4937 l 0,-155.95 c 0,-10.7216 8.7721,-19.4937 19.4937,-19.4937 z"
     class="fil0" /><path
     style="font-size:medium;font-style:normal;font-variant:normal;font-weight:normal;font-stretch:normal;text-indent:0;text-align:start;text-decoration:none;line-height:normal;letter-spacing:normal;word-spacing:normal;text-transform:none;direction:ltr;block-progression:tb;writing-mode:lr-tb;text-anchor:start;baseline-shift:baseline;color:#000000;fill:#28166f;fill-opacity:1;stroke:none;stroke-width:116;marker:none;visibility:visible;display:inline;overflow:visible;enable-background:accumulate;font-family:Sans;-inkscape-font-specification:Sans"
     d="m 71.681003,21.021048 -56.328036,48.96555 56.328036,45.570072 0,-30.259512 61.261057,0 c 20.57136,0 27.5662,14.819282 27.87594,26.996312 0.15488,6.08853 -1.359,11.78053 -5.36026,16.65993 -4.00126,4.8794 -10.9474,9.19868 -22.51568,9.19868 l -118.819125,0 0,32.73778 118.819125,0 c 16.11339,0 29.379,-6.38136 38.5382,-17.55069 9.1592,-11.16932 13.74476,-26.87361 13.35534,-42.1834 -0.77887,-30.619582 -21.45598,-58.596392 -51.89354,-58.596392 l -61.261057,0 0,-31.53833 z"
     id="path2994"
     inkscape:connector-curvature="0" /></svg>