<?xml version="1.0" encoding="UTF-8" standalone="no"?>
<!-- Creator: CorelDRAW -->

<svg
   xmlns:dc="http://purl.org/dc/elements/1.1/"
   xmlns:cc="http://creativecommons.org/ns#"
   xmlns:rdf="http://www.w3.org/1999/02/22-rdf-syntax-ns#"
   xmlns:svg="http://www.w3.org/2000/svg"
   xmlns="http://www.w3.org/2000/svg"
   xmlns:sodipodi="http://sodipodi.sourceforge.net/DTD/sodipodi-0.dtd"
   xmlns:inkscape="http://www.inkscape.org/namespaces/inkscape"
   xml:space="preserve"
   width="200mm"
   height="200mm"
   style="shape-rendering:geometricPrecision; text-rendering:geometricPrecision; image-rendering:optimizeQuality; fill-rule:evenodd; clip-rule:evenodd"
   viewBox="0 0 200 200"
   id="svg4236"
   version="1.1"
   inkscape:version="0.91 r13725"
   sodipodi:docname="bin.svg"><metadata
     id="metadata4253"><rdf:RDF><cc:Work
         rdf:about=""><dc:format>image/svg+xml</dc:format><dc:type
           rdf:resource="http://purl.org/dc/dcmitype/StillImage" /><dc:title></dc:title></cc:Work></rdf:RDF></metadata><sodipodi:namedview
     pagecolor="#ffffff"
     bordercolor="#666666"
     borderopacity="1"
     objecttolerance="10"
     gridtolerance="10"
     guidetolerance="10"
     inkscape:pageopacity="0"
     inkscape:pageshadow="2"
     inkscape:window-width="1366"
     inkscape:window-height="705"
     id="namedview4251"
     showgrid="false"
     inkscape:zoom="0.33302221"
     inkscape:cx="-226.71161"
     inkscape:cy="354.33072"
     inkscape:window-x="-8"
     inkscape:window-y="-8"
     inkscape:window-maximized="1"
     inkscape:current-layer="svg4236" /><defs
     id="defs4238"><style
       type="text/css"
       id="style4240">
    .fil4 {fill:#28166F}
    .fil2 {fill:#DA251D}
    .fil1 {fill:white}
    .fil0 {fill:#7ED3EB}
    .fil3 {fill:#1F1A17;fill-rule:nonzero}
   </style></defs><path
     style="fill:#7ed3eb"
     inkscape:connector-curvature="0"
     id="path4244"
     d="m 21.0765,2.5313 157.847,0 c 10.7216,0 19.4937,8.7721 19.4937,19.4937 l 0,155.95 c 0,10.7216 -8.7721,19.4937 -19.4937,19.4937 l -157.847,0 c -10.7216,0 -19.4937,-8.7721 -19.4937,-19.4937 l 0,-155.95 c 0,-10.7216 8.7721,-19.4937 19.4937,-19.4937 z"
     class="fil0" /><path
     style="clip-rule:evenodd;fill:#28166f;fill-opacity:1;fill-rule:evenodd;image-rendering:optimizeQuality;shape-rendering:geometricPrecision;text-rendering:geometricPrecision"
     d="m 64.912601,163.62488 c -5.217504,-1.18876 -8.86243,-4.4888 -10.216626,-9.24993 -0.404402,-1.42179 -0.410668,-2.14081 -0.410668,-47.10059 l 0,-45.656758 41.477409,0 41.477414,0 -0.004,45.552928 c -0.004,43.46842 -0.0208,45.61902 -0.38108,46.99741 -1.11916,4.28187 -3.90987,7.25963 -8.38549,8.94757 l -1.44448,0.54478 -30.850114,0.0293 c -16.967569,0.0161 -31.035827,-0.013 -31.262822,-0.0647 z M 74.174314,150.608 c 0.520154,-0.36851 1.069783,-1.02975 1.417174,-1.70494 l 0.567476,-1.10296 0,-35.4191 0,-35.419106 -0.567476,-1.119086 c -0.752611,-1.484186 -1.902268,-2.291058 -3.446879,-2.419153 -1.532517,-0.127087 -3.10742,0.61637 -3.956211,1.867587 l -0.593177,0.874404 -0.0533,35.974184 c -0.04833,32.63796 -0.02267,36.03878 0.277271,36.67084 1.152003,2.42765 4.234776,3.29951 6.355125,1.79733 z m 24.067015,0.0748 c 0.440141,-0.29127 1.060753,-0.97275 1.379146,-1.5144 l 0.578885,-0.9848 0.0616,-34.87404 c 0.0339,-19.180729 0.005,-35.354368 -0.0644,-35.941433 -0.17446,-1.476589 -1.10344,-2.83045 -2.389265,-3.482026 -2.602929,-1.319005 -5.545578,0.183687 -6.177983,3.154838 -0.137674,0.646838 -0.189865,12.916743 -0.152948,35.959091 l 0.05601,34.97721 0.48081,0.9286 c 0.545204,1.05297 1.019002,1.50179 2.20181,2.08573 1.136239,0.56095 2.918593,0.42426 4.02628,-0.30877 z m 24.207821,-0.10096 c 0.59214,-0.4074 1.09856,-0.98973 1.40906,-1.62028 l 0.48472,-0.98432 0.0563,-34.97721 c 0.0388,-24.092469 -0.0119,-35.298309 -0.16273,-36.009002 -0.31508,-1.483937 -1.0519,-2.479753 -2.30446,-3.114469 -2.15263,-1.090818 -4.61872,-0.285387 -5.72806,1.870805 l -0.528,1.026248 0,35.498638 c 0,29.21777 0.0491,35.63756 0.27768,36.28377 0.33112,0.93625 1.73817,2.34968 2.60822,2.62004 1.17081,0.36382 2.87297,0.10363 3.88725,-0.59422 z M 46.940098,55.320829 c 0.315658,-3.483344 1.828228,-6.572424 4.549505,-9.291319 2.071222,-2.069403 3.954954,-3.203068 6.722098,-4.045483 1.488712,-0.453215 1.891556,-0.473297 11.653425,-0.580932 l 10.11141,-0.111489 0.07261,-0.515191 c 0.138069,-0.979666 1.219879,-2.996183 2.076493,-3.87065 0.931385,-0.950785 2.264721,-1.698116 3.732017,-2.091784 0.678645,-0.182075 3.483722,-0.232531 10.420948,-0.187441 l 9.49234,0.0617 1.34131,0.641448 c 1.38849,0.664011 2.88771,1.996505 3.45746,3.072947 0.18021,0.340487 0.48694,1.129796 0.68161,1.75402 l 0.35395,1.134954 10.08321,0.111177 c 11.371,0.125376 11.06744,0.08814 14.51986,1.781243 1.65778,0.812991 2.24865,1.250779 3.82791,2.83617 2.73906,2.749672 4.23204,5.802086 4.54907,9.300633 l 0.14052,1.550601 -48.963132,0 -48.963128,0 0.140511,-1.550601 z"
     id="path3354"
     inkscape:connector-curvature="0" /></svg>