<?xml version="1.0" encoding="UTF-8" standalone="no"?>
<!-- Creator: CorelDRAW -->

<svg
   xmlns:dc="http://purl.org/dc/elements/1.1/"
   xmlns:cc="http://creativecommons.org/ns#"
   xmlns:rdf="http://www.w3.org/1999/02/22-rdf-syntax-ns#"
   xmlns:svg="http://www.w3.org/2000/svg"
   xmlns="http://www.w3.org/2000/svg"
   xmlns:sodipodi="http://sodipodi.sourceforge.net/DTD/sodipodi-0.dtd"
   xmlns:inkscape="http://www.inkscape.org/namespaces/inkscape"
   xml:space="preserve"
   width="200mm"
   height="200mm"
   style="shape-rendering:geometricPrecision; text-rendering:geometricPrecision; image-rendering:optimizeQuality; fill-rule:evenodd; clip-rule:evenodd"
   viewBox="0 0 200 200"
   id="svg3042"
   version="1.1"
   inkscape:version="0.48.4 r9939"
   sodipodi:docname="mereni.svg"><metadata
     id="metadata3059"><rdf:RDF><cc:Work
         rdf:about=""><dc:format>image/svg+xml</dc:format><dc:type
           rdf:resource="http://purl.org/dc/dcmitype/StillImage" /><dc:title></dc:title></cc:Work></rdf:RDF></metadata><sodipodi:namedview
     pagecolor="#ffffff"
     bordercolor="#666666"
     borderopacity="1"
     objecttolerance="10"
     gridtolerance="10"
     guidetolerance="10"
     inkscape:pageopacity="0"
     inkscape:pageshadow="2"
     inkscape:window-width="1920"
     inkscape:window-height="1056"
     id="namedview3057"
     showgrid="false"
     inkscape:zoom="0.33302221"
     inkscape:cx="-95.367813"
     inkscape:cy="-552.29449"
     inkscape:window-x="0"
     inkscape:window-y="24"
     inkscape:window-maximized="1"
     inkscape:current-layer="svg3042" /><defs
     id="defs3044"><style
       type="text/css"
       id="style3046">
    .fil4 {fill:#28166F}
    .fil2 {fill:#DA251D}
    .fil1 {fill:white}
    .fil0 {fill:#7ED3EB}
    .fil3 {fill:#1F1A17;fill-rule:nonzero}
   </style><clipPath
       clipPathUnits="userSpaceOnUse"
       id="clipPath3270"><path
         inkscape:connector-curvature="0"
         d="M 0,0 596,0 596,842 0,842 0,0 z"
         clip-rule="evenodd"
         id="path3272" /></clipPath></defs><g
     style="font-size:24.03460312px;font-style:normal;font-weight:normal;line-height:125%;letter-spacing:0px;word-spacing:0px;fill:#ffffff;fill-opacity:1;stroke:none;font-family:Sans"
     id="text3081" /><g
     id="g3785"
     transform="translate(-0.56444443,-3.9511109)"><path
       id="path3276"
       style="fill:#2b44a0;fill-opacity:1;fill-rule:nonzero;stroke:none"
       d="m 71.881556,133.77168 3.11012,6.68425 c -0.188548,0.0482 -0.440799,0.0874 -0.756755,0.11759 -0.315893,0.0303 -0.601498,0.0454 -0.856565,0.0454 -0.321588,0 -0.632037,-0.0151 -0.931284,-0.0454 -0.299435,-0.0302 -0.554503,-0.0693 -0.765077,-0.11759 l -3.0436,-6.52124 2.810685,-6.41254 c 0.332601,-0.0605 0.620835,-0.0997 0.864763,-0.11777 0.244054,-0.0181 0.49349,-0.0272 0.748557,-0.0272 0.121902,0 0.260386,0.003 0.415642,0.009 0.155381,0.006 0.307946,0.0181 0.457444,0.0362 0.149749,0.0181 0.293929,0.0362 0.432476,0.0543 0.138547,0.0181 0.257758,0.0334 0.357445,0.0454 l -2.843851,6.24953 z m -6.419989,-6.24953 c 0.299435,-0.0484 0.571023,-0.0846 0.815139,-0.10869 0.243866,-0.0242 0.460135,-0.0362 0.648682,-0.0362 0.199561,0 0.424153,0.0121 0.673338,0.0362 0.249623,0.0241 0.518521,0.0603 0.806754,0.10869 l 0,12.93378 c -0.587669,0.10858 -1.075463,0.16302 -1.463571,0.16302 -0.410135,0 -0.903624,-0.0544 -1.480342,-0.16302 l 0,-12.93378 z m 10.527913,0 c 0.299435,-0.0484 0.57096,-0.0846 0.814889,-0.10869 0.244116,-0.0242 0.460135,-0.0362 0.648682,-0.0362 0.199561,0 0.424153,0.0121 0.673588,0.0362 0.24956,0.0241 0.51827,0.0603 0.806566,0.10869 l 0,10.144 3.841968,0 c 0.05551,0.30194 0.09155,0.56464 0.108072,0.78798 0.01683,0.22347 0.02516,0.42572 0.02516,0.60682 0,0.20544 -0.0083,0.41971 -0.02516,0.64324 -0.01652,0.22327 -0.05257,0.49205 -0.108072,0.806 l -6.785693,0 0,-12.98804 z m 12.673144,13.18729 c -0.89793,0 -1.64367,-0.13292 -2.236846,-0.39844 -0.593175,-0.2657 -1.061633,-0.64924 -1.405436,-1.15037 -0.343553,-0.50112 -0.58479,-1.10794 -0.723338,-1.82051 -0.138735,-0.71257 -0.207946,-1.51557 -0.207946,-2.40925 l 0,-7.40872 c 0.321463,-0.0484 0.598683,-0.0816 0.831597,-0.0997 0.232727,-0.0181 0.454629,-0.0271 0.665203,-0.0271 0.188547,0 0.396493,0.009 0.623714,0.0271 0.22722,0.0181 0.501624,0.0512 0.823212,0.0997 l 0,7.02844 c 0,0.60381 0.02221,1.11695 0.06652,1.53966 0.04456,0.42272 0.124718,0.76689 0.2413,1.0326 0.116332,0.26552 0.279911,0.45588 0.490423,0.57046 0.210762,0.11477 0.487982,0.17221 0.831597,0.17221 0.343991,0 0.623901,-0.0574 0.83992,-0.17221 0.216269,-0.11458 0.382664,-0.30494 0.498996,-0.57046 0.11652,-0.26571 0.194054,-0.60988 0.232915,-1.0326 0.03886,-0.42271 0.0582,-0.93585 0.0582,-1.53966 l 0,-7.02844 c 0.332602,-0.0484 0.612513,-0.0816 0.839921,-0.0997 0.227407,-0.0181 0.435103,-0.0271 0.623651,-0.0271 0.19956,0 0.415829,0.009 0.648557,0.0271 0.232914,0.0181 0.510134,0.0512 0.831722,0.0997 l 0,7.40872 c 0,0.89368 -0.06934,1.69668 -0.207884,2.40925 -0.138547,0.71257 -0.379785,1.31939 -0.723525,1.82051 -0.343803,0.50113 -0.812073,0.88467 -1.405436,1.15037 -0.593176,0.26552 -1.338729,0.39844 -2.237034,0.39844 z m 14.918686,-4.0033 c 0,0.797 -0.13304,1.45531 -0.39912,1.97452 -0.26608,0.51921 -0.63197,0.92985 -1.09761,1.23172 -0.46583,0.30194 -1.02015,0.5132 -1.6632,0.63398 -0.643049,0.12084 -1.341544,0.18116 -2.095482,0.18116 -0.598807,0 -1.136476,-0.0241 -1.613507,-0.0724 -0.476593,-0.0483 -0.992298,-0.10876 -1.546612,-0.1811 l 0,-12.95187 c 0.421274,-0.0725 0.881409,-0.13285 1.380405,-0.18129 0.498996,-0.0482 1.081158,-0.0723 1.74636,-0.0723 0.632037,0 1.222396,0.0573 1.771206,0.17203 0.54887,0.11477 1.02853,0.30795 1.4386,0.57972 0.41032,0.27178 0.73473,0.63398 0.97296,1.08686 0.23842,0.45287 0.35763,1.02352 0.35763,1.71175 0,0.56764 -0.11639,1.08385 -0.34912,1.54893 -0.23291,0.46495 -0.52684,0.82415 -0.88159,1.07784 0.25506,0.10851 0.50181,0.25044 0.74004,0.42553 0.23842,0.17528 0.44918,0.39255 0.63204,0.65225 0.18291,0.25951 0.32978,0.57046 0.4408,0.93285 0.11088,0.36226 0.1662,0.7789 0.1662,1.24986 z m -5.538138,-1.66651 0,3.04323 c 0.07753,0.0121 0.174529,0.0211 0.290924,0.0272 0.11652,0.006 0.268897,0.009 0.457257,0.009 0.210949,0 0.424152,-0.0241 0.640547,-0.0723 0.216081,-0.0484 0.412951,-0.12985 0.59036,-0.24462 0.17741,-0.11477 0.31877,-0.27178 0.42415,-0.47096 0.10532,-0.19925 0.15782,-0.44987 0.15782,-0.75181 0,-0.57966 -0.17453,-0.9811 -0.52377,-1.20463 -0.349313,-0.22327 -0.801063,-0.33504 -1.35544,-0.33504 l -0.681848,0 z m 0,-2.57226 0.465641,0 c 0.476656,0 0.848056,-0.10576 1.114325,-0.31702 0.266081,-0.21126 0.399122,-0.57666 0.399122,-1.09586 0,-0.25369 -0.047,-0.46496 -0.141364,-0.63398 -0.09437,-0.16909 -0.213579,-0.30194 -0.357633,-0.39862 -0.144179,-0.0967 -0.304942,-0.16302 -0.482287,-0.19919 -0.177409,-0.0362 -0.34931,-0.0544 -0.515705,-0.0544 -0.06633,0 -0.14687,0 -0.241237,0 -0.09399,0 -0.17453,0.006 -0.240862,0.0183 l 0,2.68084 z m 19.126298,4.23877 c 0,0.797 -0.13323,1.45531 -0.39931,1.97452 -0.26589,0.51921 -0.63185,0.92985 -1.09749,1.23172 -0.46583,0.30194 -1.02014,0.5132 -1.66319,0.63398 -0.64318,0.12084 -1.34174,0.18116 -2.09561,0.18116 -0.59887,0 -1.13654,-0.0241 -1.61332,-0.0724 -0.47684,-0.0483 -0.9923,-0.10876 -1.5468,-0.1811 l 0,-12.95187 c 0.42146,-0.0725 0.88141,-0.13285 1.3804,-0.18129 0.49919,-0.0482 1.08116,-0.0723 1.74655,-0.0723 0.63185,0 1.22221,0.0573 1.77102,0.17203 0.54899,0.11477 1.02865,0.30795 1.4386,0.57972 0.41032,0.27178 0.73473,0.63398 0.97296,1.08686 0.23861,0.45287 0.35776,1.02352 0.35776,1.71175 0,0.56764 -0.11652,1.08385 -0.34925,1.54893 -0.23291,0.46495 -0.52665,0.82415 -0.88159,1.07784 0.25506,0.10851 0.50181,0.25044 0.74004,0.42553 0.23842,0.17528 0.44931,0.39255 0.63223,0.65225 0.18285,0.25951 0.32972,0.57046 0.44061,0.93285 0.11088,0.36226 0.16639,0.7789 0.16639,1.24986 z m -5.53833,-1.66651 0,3.04323 c 0.0775,0.0121 0.17453,0.0211 0.29105,0.0272 0.1164,0.006 0.26896,0.009 0.45732,0.009 0.2107,0 0.42415,-0.0241 0.64036,-0.0723 0.21608,-0.0484 0.41314,-0.12985 0.59036,-0.24462 0.17735,-0.11477 0.31877,-0.27178 0.42409,-0.47096 0.10538,-0.19925 0.15807,-0.44987 0.15807,-0.75181 0,-0.57966 -0.17453,-0.9811 -0.52403,-1.20463 -0.34906,-0.22327 -0.80087,-0.33504 -1.35537,-0.33504 l -0.68185,0 z m 0,-2.57226 0.46564,0 c 0.4766,0 0.84825,-0.10576 1.11433,-0.31702 0.26608,-0.21126 0.39912,-0.57666 0.39912,-1.09586 0,-0.25369 -0.047,-0.46496 -0.14143,-0.63398 -0.0942,-0.16909 -0.21339,-0.30194 -0.35757,-0.39862 -0.14405,-0.0967 -0.30494,-0.16302 -0.48216,-0.19919 -0.17734,-0.0362 -0.34943,-0.0544 -0.51564,-0.0544 -0.0665,0 -0.14687,0 -0.24124,0 -0.0942,0 -0.17453,0.006 -0.24105,0.0183 l 0,2.68084 z m 8.53206,8.15158 c -0.41026,0 -0.90375,-0.0544 -1.48028,-0.16302 l 0,-12.93378 c 0.29924,-0.0484 0.57102,-0.0846 0.81489,-0.10869 0.24411,-0.0242 0.46013,-0.0362 0.64874,-0.0362 0.19956,0 0.42409,0.0121 0.67353,0.0362 0.24937,0.0241 0.51833,0.0603 0.80656,0.10869 l 0,12.93378 c -0.58748,0.10858 -1.07534,0.16302 -1.46344,0.16302 z m 5.4218,-0.14493 c -0.25506,0.0482 -0.48779,0.0844 -0.69855,0.10857 -0.21051,0.0243 -0.41577,0.0364 -0.61533,0.0364 -0.19975,0 -0.42966,-0.0151 -0.69023,-0.0454 -0.26058,-0.0302 -0.55163,-0.0754 -0.87309,-0.13567 l 3.72532,-12.93378 c 0.28842,-0.0364 0.55713,-0.0665 0.80676,-0.0906 0.24956,-0.0242 0.50181,-0.0362 0.75669,-0.0362 0.21076,0 0.4408,0.0121 0.69023,0.0362 0.24937,0.0241 0.53498,0.0542 0.85657,0.0906 L 133.219,140.456 c -0.63222,0.10858 -1.18653,0.16302 -1.66319,0.16302 -0.2219,0 -0.44343,-0.0121 -0.66533,-0.0364 -0.22159,-0.0242 -0.4602,-0.0603 -0.71508,-0.10857 l -0.63203,-2.51801 c -0.31058,0.0967 -0.6072,0.16909 -0.88992,0.21746 -0.2826,0.0482 -0.5627,0.0724 -0.83973,0.0724 -0.25513,0 -0.51571,-0.0211 -0.78179,-0.0633 -0.26608,-0.0424 -0.5433,-0.10569 -0.83153,-0.19036 l -0.6154,2.48184 z m 2.3284,-9.56446 -1.11438,4.65548 c 0.18861,0.0603 0.36595,0.10857 0.53235,0.14474 0.1662,0.0364 0.3381,0.0544 0.51551,0.0544 0.18855,0 0.37428,-0.0151 0.55713,-0.0452 0.18311,-0.0303 0.37428,-0.0755 0.57372,-0.13586 l -1.06433,-4.67356 z m 8.56522,-0.59781 -2.77745,0 c -0.0998,-0.51921 -0.14956,-0.99637 -0.14956,-1.43097 0,-0.39862 0.0498,-0.86351 0.14956,-1.39498 l 8.49888,0 c 0.0444,0.2657 0.0775,0.51338 0.0997,0.74273 0.0221,0.22954 0.0333,0.44681 0.0333,0.65225 0,0.39837 -0.0445,0.8754 -0.13304,1.43097 l -2.77751,0 0,10.14418 c -0.58767,0.10858 -1.07566,0.16302 -1.46376,0.16302 -0.41014,0 -0.90344,-0.0544 -1.48016,-0.16302 l 0,-10.14418 z m 7.10165,-2.7896 c 0.29944,-0.0484 0.57102,-0.0846 0.81495,-0.10869 0.24406,-0.0242 0.46014,-0.0362 0.64869,-0.0362 0.19956,0 0.42415,0.0121 0.67352,0.0362 0.24944,0.0241 0.51833,0.0603 0.80657,0.10869 l 0,10.144 3.84203,0 c 0.0555,0.30194 0.0914,0.56464 0.10801,0.78798 0.0169,0.22347 0.0252,0.42572 0.0252,0.60682 0,0.20544 -0.008,0.41971 -0.0252,0.64324 -0.0166,0.22327 -0.0525,0.49205 -0.10801,0.806 l -6.78576,0 0,-12.98804 z m 7.85008,6.52124 c 0,-0.9662 0.10269,-1.86288 0.30776,-2.69003 0.20526,-0.82734 0.52115,-1.54273 0.94793,-2.14655 0.42697,-0.60381 0.97033,-1.07778 1.63003,-1.42208 0.65969,-0.34418 1.44411,-0.51621 2.35318,-0.51621 0.90932,0 1.69085,0.17203 2.34523,0.51621 0.65419,0.3443 1.19467,0.81827 1.62164,1.42208 0.42684,0.60382 0.74274,1.31921 0.94799,2.14655 0.20507,0.82715 0.30757,1.72383 0.30757,2.69003 0,0.96608 -0.1025,1.85675 -0.30757,2.67183 -0.20525,0.81507 -0.52115,1.52158 -0.94799,2.11938 -0.42697,0.59781 -0.96745,1.06276 -1.62164,1.3948 -0.65438,0.33204 -1.43591,0.49812 -2.34523,0.49812 -0.90907,0 -1.69349,-0.16608 -2.35318,-0.49812 -0.6597,-0.33204 -1.20306,-0.79699 -1.63003,-1.3948 -0.42678,-0.5978 -0.74267,-1.30431 -0.94793,-2.11938 -0.20507,-0.81508 -0.30776,-1.70575 -0.30776,-2.67183 z m 7.36792,0 c 0,-2.63271 -0.70406,-3.94897 -2.11232,-3.94897 -1.44148,0 -2.162,1.31626 -2.162,3.94897 0,1.3162 0.17453,2.29755 0.52384,2.94354 0.34925,0.64605 0.88973,0.96908 1.62146,0.96908 1.41945,0 2.12902,-1.30412 2.12902,-3.91262 z m 4.77325,-6.52124 c 0.24412,-0.0484 0.46564,-0.0846 0.66539,-0.10869 0.19956,-0.0242 0.39362,-0.0362 0.58198,-0.0362 0.19956,0 0.4075,0.0151 0.6239,0.0453 0.21602,0.0302 0.40175,0.0633 0.55713,0.0997 l 3.85836,7.10078 0,-7.10078 c 0.28824,-0.0484 0.549,-0.0846 0.78173,-0.10869 0.23272,-0.0242 0.44367,-0.0362 0.63203,-0.0362 0.18855,0 0.38811,0.0121 0.59887,0.0362 0.21051,0.0241 0.43248,0.0603 0.6652,0.10869 l -0.0167,12.93378 c -0.11083,0.0362 -0.27172,0.0723 -0.48229,0.10858 -0.21076,0.0363 -0.43798,0.0544 -0.68191,0.0544 -0.27722,0 -0.52666,-0.0211 -0.74856,-0.0635 -0.22152,-0.0422 -0.38241,-0.0754 -0.4821,-0.0995 l -3.87538,-7.06479 0,7.06479 c -0.48761,0.10858 -0.93129,0.16302 -1.33041,0.16302 -0.39912,0 -0.84824,-0.0544 -1.34724,-0.16302 l 0,-12.93378 z m 15.46737,13.18729 c -0.89811,0 -1.64367,-0.13292 -2.23703,-0.39844 -0.59299,-0.2657 -1.06145,-0.64924 -1.40525,-1.15037 -0.34374,-0.50112 -0.58485,-1.10794 -0.72352,-1.82051 -0.13855,-0.71257 -0.20776,-1.51557 -0.20776,-2.40925 l 0,-7.40872 c 0.32146,-0.0484 0.59868,-0.0816 0.8316,-0.0997 0.23272,-0.0181 0.45444,-0.0271 0.6652,-0.0271 0.18854,0 0.3963,0.009 0.62371,0.0271 0.22722,0.0181 0.50163,0.0512 0.82321,0.0997 l 0,7.02844 c 0,0.60381 0.0222,1.11695 0.0665,1.53966 0.0446,0.42272 0.12472,0.76689 0.24124,1.0326 0.1164,0.26552 0.27991,0.45588 0.49049,0.57046 0.21076,0.11477 0.48798,0.17221 0.83159,0.17221 0.34374,0 0.62384,-0.0574 0.83992,-0.17221 0.21621,-0.11458 0.3826,-0.30494 0.499,-0.57046 0.11652,-0.26571 0.19405,-0.60988 0.23291,-1.0326 0.0389,-0.42271 0.0581,-0.93585 0.0581,-1.53966 l 0,-7.02844 c 0.3326,-0.0484 0.61257,-0.0816 0.83998,-0.0997 0.22722,-0.0181 0.43511,-0.0271 0.62365,-0.0271 0.19956,0 0.41565,0.009 0.64856,0.0271 0.23285,0.0181 0.51013,0.0512 0.83153,0.0997 l 0,7.40872 c 0,0.89368 -0.0691,1.69668 -0.20769,2.40925 -0.13874,0.71257 -0.37979,1.31939 -0.72371,1.82051 -0.34362,0.50113 -0.81189,0.88467 -1.40525,1.15037 -0.59318,0.26552 -1.33873,0.39844 -2.23704,0.39844"
       inkscape:connector-curvature="0" /><path
       id="path3278"
       style="fill:#2b44a0;fill-opacity:1;fill-rule:evenodd;stroke:none"
       d="m 105.35039,116.28386 c 0,2.32733 -1.88735,4.21468 -4.21468,4.21468 -2.327274,0 -4.214685,-1.88735 -4.214685,-4.21468 0,-2.32727 1.887411,-4.21469 4.214685,-4.21469 2.32733,0 4.21468,1.88742 4.21468,4.21469"
       inkscape:connector-curvature="0" /><path
       id="path3280"
       style="fill:#2b44a0;fill-opacity:1;fill-rule:evenodd;stroke:none"
       d="m 84.433049,116.28386 c 0,2.32733 -1.887411,4.21468 -4.214682,4.21468 -2.327334,0 -4.214745,-1.88735 -4.214745,-4.21468 0,-2.32727 1.887411,-4.21469 4.214745,-4.21469 2.327271,0 4.214682,1.88742 4.214682,4.21469"
       inkscape:connector-curvature="0" /><path
       id="path3282"
       style="fill:#2b44a0;fill-opacity:1;fill-rule:evenodd;stroke:none"
       d="m 94.89175,116.28386 c 0,2.32733 -1.887411,4.21468 -4.214744,4.21468 -2.327271,0 -4.214682,-1.88735 -4.214682,-4.21468 0,-2.32727 1.887411,-4.21469 4.214682,-4.21469 2.327333,0 4.214744,1.88742 4.214744,4.21469"
       inkscape:connector-curvature="0" /><path
       id="path3284"
       style="fill:#2b44a0;fill-opacity:1;fill-rule:evenodd;stroke:none"
       d="m 73.974347,116.28386 c 0,2.32733 -1.887348,4.21468 -4.214682,4.21468 -2.327333,0 -4.214682,-1.88735 -4.214682,-4.21468 0,-2.32727 1.887349,-4.21469 4.214682,-4.21469 2.327334,0 4.214682,1.88742 4.214682,4.21469"
       inkscape:connector-curvature="0" /><path
       id="path3286"
       style="fill:#2b44a0;fill-opacity:1;fill-rule:evenodd;stroke:none"
       d="m 115.80909,116.28386 c 0,2.32733 -1.88741,4.21468 -4.21468,4.21468 -2.32733,0 -4.21468,-1.88735 -4.21468,-4.21468 0,-2.32727 1.88735,-4.21469 4.21468,-4.21469 2.32727,0 4.21468,1.88742 4.21468,4.21469"
       inkscape:connector-curvature="0" /><path
       id="path3288"
       style="fill:#7a7f81;fill-opacity:1;fill-rule:nonzero;stroke:#7a7f81;stroke-width:0.35475394;stroke-linecap:butt;stroke-linejoin:miter;stroke-miterlimit:22.92558479;stroke-opacity:1;stroke-dasharray:none"
       d="m 16.016291,154.39152 0.710947,-0.54824 c 0.501499,1.18648 1.08047,1.77971 1.73735,1.77971 0.279723,0 0.544052,-0.0825 0.790796,-0.25281 0.246745,-0.16765 0.435104,-0.39293 0.563326,-0.67834 0.130225,-0.28273 0.194242,-0.58323 0.194242,-0.90113 0,-0.36288 -0.09506,-0.71589 -0.285543,-1.06376 -0.262201,-0.47803 -0.740234,-1.05631 -1.434034,-1.72971 -0.697431,-0.68079 -1.132785,-1.17146 -1.303748,-1.47421 -0.295179,-0.50826 -0.442926,-1.05901 -0.442926,-1.64968 0,-0.47065 0.08548,-0.89868 0.260387,-1.2841 0.174717,-0.38548 0.421649,-0.69079 0.738293,-0.91357 0.316644,-0.22278 0.660572,-0.33298 1.031659,-0.33298 0.396431,0 0.765765,0.1251 1.107753,0.37804 0.343803,0.25031 0.707256,0.71576 1.090044,1.3891 l -0.682036,0.66839 c -0.314829,-0.53817 -0.584853,-0.89367 -0.806378,-1.06376 -0.221588,-0.17027 -0.464391,-0.25794 -0.72484,-0.25794 -0.338045,0 -0.614076,0.13272 -0.829594,0.39805 -0.213766,0.26289 -0.320524,0.58824 -0.320524,0.97372 0,0.23535 0.03686,0.46313 0.11264,0.68341 0.07747,0.22015 0.215518,0.45801 0.415767,0.71845 0.1107,0.13517 0.472213,0.49562 1.082222,1.07622 0.724777,0.69086 1.222208,1.30412 1.492357,1.84229 0.268021,0.53817 0.404065,1.0764 0.404065,1.61952 0,0.78353 -0.2311,1.46188 -0.69161,2.04016 -0.462639,0.57559 -1.022085,0.86351 -1.682844,0.86351 -0.509134,0 -0.969457,-0.17278 -1.383472,-0.52315 -0.413827,-0.3505 -0.794676,-0.93623 -1.144299,-1.75719 z m 7.234002,-8.93117 0.804438,0 0,2.96125 1.262947,0 0,0.88109 -1.262947,0 0,7.09884 -0.804438,0 0,-7.09884 -1.086352,0 0,-0.88109 1.086352,0 0,-2.96125 z m 9.427856,2.96125 0,7.97993 -0.785102,0 0,-1.37177 c -0.334166,0.52315 -0.709195,0.9162 -1.124962,1.18159 -0.41583,0.2627 -0.870458,0.39537 -1.363948,0.39537 -0.876465,0 -1.624458,-0.41045 -2.24642,-1.22891 -0.619771,-0.81864 -0.930533,-1.81482 -0.930533,-2.98878 0,-1.14893 0.314642,-2.13021 0.940295,-2.94623 0.625654,-0.81595 1.379717,-1.22658 2.259937,-1.22658 0.509071,0 0.969394,0.1403 1.37953,0.41808 0.411887,0.28047 0.773399,0.69837 1.086101,1.25412 l 0,-1.46682 0.785102,0 z m -3.188655,0.78604 c -0.442926,0 -0.852874,0.14011 -1.230031,0.42039 -0.374966,0.28292 -0.674026,0.67585 -0.895614,1.18654 -0.221526,0.50801 -0.332226,1.04624 -0.332226,1.61188 0,0.56321 0.1107,1.10144 0.334166,1.61458 0.22528,0.5132 0.524527,0.91125 0.903436,1.19899 0.376969,0.28535 0.782975,0.42803 1.214386,0.42803 0.437295,0 0.851122,-0.14268 1.241733,-0.4254 0.390423,-0.28292 0.691798,-0.66589 0.901622,-1.15156 0.211826,-0.48304 0.316644,-1.02872 0.316644,-1.63447 0,-0.92365 -0.23717,-1.69724 -0.709195,-2.31789 -0.472213,-0.62083 -1.053123,-0.93109 -1.744921,-0.93109 z m 4.681012,-0.78604 0.814013,0 0,1.16632 c 0.243052,-0.45801 0.499559,-0.80087 0.76758,-1.02865 0.270149,-0.22779 0.549872,-0.34305 0.843299,-0.34305 0.219586,0 0.454628,0.0927 0.705441,0.27296 l -0.415956,0.86602 c -0.167082,-0.0951 -0.307069,-0.14012 -0.421649,-0.14012 -0.264141,0 -0.520648,0.14012 -0.767393,0.42059 -0.246744,0.28273 -0.435291,0.71821 -0.563513,1.30907 -0.09919,0.45556 -0.147809,1.37421 -0.147809,2.75837 l 0,2.69842 -0.814013,0 0,-7.97993 z m 9.023666,5.33157 0.670522,0.45569 c -0.219836,0.55807 -0.474341,1.00613 -0.761886,1.34918 -0.289485,0.34286 -0.613951,0.60312 -0.973524,0.78085 -0.361324,0.17772 -0.769457,0.26783 -1.224148,0.26783 -1.010382,0 -1.799176,-0.42553 -2.368447,-1.27909 -0.569396,-0.85357 -0.853062,-1.81714 -0.853062,-2.89354 0,-1.01126 0.240925,-1.91488 0.722712,-2.70587 0.610197,-1.00631 1.428277,-1.512 2.452364,-1.512 1.055063,0 1.898175,0.51814 2.527708,1.54949 0.448996,0.72847 0.676404,1.63703 0.684039,2.72589 l -5.566927,0 c 0.01364,0.93122 0.244992,1.69223 0.687918,2.2854 0.445054,0.59318 0.992798,0.89105 1.645798,0.89105 0.314641,0 0.621711,-0.0701 0.919018,-0.2127 0.297308,-0.14262 0.551875,-0.33048 0.759758,-0.56571 0.207884,-0.23272 0.435292,-0.6132 0.678157,-1.13647 z m 0,-2.14767 c -0.106821,-0.54812 -0.262389,-0.98623 -0.464453,-1.31157 -0.203941,-0.32797 -0.472025,-0.59337 -0.806379,-0.79343 -0.334165,-0.20031 -0.683976,-0.3005 -1.053123,-0.3005 -0.606129,0 -1.128904,0.25275 -1.564196,0.75601 -0.318772,0.36539 -0.559446,0.91601 -0.722837,1.64949 l 4.610988,0 z m -1.925521,-6.92356 1.224085,0 -1.678776,2.26025 -0.785102,0 1.239793,-2.26025 z m 7.263037,11.71959 1.18923,-10.78849 0.137984,0 3.404361,8.85352 3.369318,-8.85352 0.136044,0 1.202872,10.78849 -0.82609,0 -0.819896,-7.71473 -2.961309,7.71473 -0.209824,0 -3.000108,-7.77218 -0.814076,7.77218 -0.808506,0 z m 16.180071,-2.64836 0.670522,0.45569 c -0.219586,0.55807 -0.474153,1.00613 -0.761698,1.34918 -0.289673,0.34286 -0.614077,0.60312 -0.973461,0.78085 -0.361325,0.17772 -0.76952,0.26783 -1.224148,0.26783 -1.01057,0 -1.799427,-0.42553 -2.368635,-1.27909 -0.569396,-0.85357 -0.853062,-1.81714 -0.853062,-2.89354 0,-1.01126 0.24105,-1.91488 0.722837,-2.70587 0.610072,-1.00631 1.428152,-1.512 2.452176,-1.512 1.055126,0 1.898425,0.51814 2.527959,1.54949 0.448808,0.72847 0.676216,1.63703 0.683976,2.72589 l -5.566865,0 c 0.01364,0.93122 0.244805,1.69223 0.687731,2.2854 0.445054,0.59318 0.992986,0.89105 1.645798,0.89105 0.314829,0 0.621899,-0.0701 0.919206,-0.2127 0.297308,-0.14262 0.551624,-0.33048 0.75957,-0.56571 0.207884,-0.23272 0.435292,-0.6132 0.678094,-1.13647 z m 0,-2.14767 c -0.106758,-0.54812 -0.262139,-0.98623 -0.464203,-1.31157 -0.204191,-0.32797 -0.472212,-0.59337 -0.806566,-0.79343 -0.334166,-0.20031 -0.683851,-0.3005 -1.053123,-0.3005 -0.606129,0 -1.128717,0.25275 -1.564008,0.75601 -0.318772,0.36539 -0.559697,0.91601 -0.723025,1.64949 l 4.610925,0 z m -1.937223,-4.62833 -0.790797,0 -1.651429,-1.88472 1.025839,0 1.006439,1.11627 1.041484,-1.11627 1.058942,0 -1.690478,1.88472 z m 7.412974,2.31789 -0.513013,0.68347 c -0.42553,-0.53322 -0.841297,-0.80106 -1.247553,-0.80106 -0.258258,0 -0.477844,0.11014 -0.662511,0.33048 -0.184668,0.22027 -0.275844,0.47803 -0.275844,0.77089 0,0.25795 0.07572,0.50576 0.227221,0.74093 0.151501,0.23792 0.470272,0.52064 0.955939,0.84348 0.592675,0.39556 0.994988,0.77609 1.206752,1.14399 0.209886,0.37052 0.314704,0.78848 0.314704,1.25412 0,0.65332 -0.17866,1.20907 -0.53623,1.66457 -0.355693,0.45307 -0.802499,0.68079 -1.336788,0.68079 -0.357633,0 -0.697681,-0.1 -1.022085,-0.30031 -0.324466,-0.20025 -0.592675,-0.47803 -0.806441,-0.82853 l 0.501312,-0.73348 c 0.406005,0.59086 0.837417,0.88617 1.292107,0.88617 0.318709,0 0.590861,-0.13017 0.814201,-0.39556 0.223466,-0.2627 0.336106,-0.57315 0.336106,-0.93109 0,-0.29287 -0.07378,-0.55576 -0.221526,-0.78354 -0.149561,-0.22528 -0.481787,-0.51064 -1.002622,-0.85106 -0.557694,-0.3729 -0.936603,-0.73848 -1.138605,-1.10137 -0.200124,-0.36045 -0.301062,-0.77346 -0.301062,-1.23904 0,-0.60582 0.159323,-1.10888 0.479847,-1.50938 0.320524,-0.40056 0.72678,-0.60331 1.216514,-0.60331 0.569208,0 1.142359,0.36044 1.719577,1.07884 z m 2.104181,-3.83471 0.804626,0 0,2.96125 1.262947,0 0,0.88109 -1.262947,0 0,7.09884 -0.804626,0 0,-7.09884 -1.086164,0 0,-0.88109 1.086164,0 0,-2.96125 z m 6.188951,2.75587 c 0.95206,0 1.740916,0.44561 2.36851,1.33678 0.569396,0.81101 0.852999,1.77227 0.852999,2.88109 0,1.11382 -0.301188,2.09016 -0.901622,2.9237 -0.60225,0.83354 -1.37565,1.24893 -2.319887,1.24893 -0.94843,0 -1.723645,-0.41539 -2.326019,-1.24893 -0.60225,-0.83354 -0.901497,-1.80988 -0.901497,-2.9237 0,-1.10387 0.283665,-2.06263 0.853061,-2.87364 0.625654,-0.89618 1.41839,-1.34423 2.374455,-1.34423 z m 0,1.00631 c -0.66076,0 -1.228216,0.31539 -1.702368,0.94618 -0.473965,0.63078 -0.711135,1.39173 -0.711135,2.28791 0,0.57565 0.107008,1.11382 0.324654,1.61194 0.215518,0.50075 0.507131,0.88372 0.876278,1.1565 0.367207,0.27034 0.771272,0.40551 1.212571,0.40551 0.439046,0 0.843174,-0.13517 1.212446,-0.40551 0.367207,-0.27278 0.660572,-0.65575 0.876278,-1.1565 0.215581,-0.49812 0.324466,-1.03629 0.324466,-1.61194 0,-0.89618 -0.238922,-1.65713 -0.715014,-2.28791 -0.476155,-0.63079 -1.041484,-0.94618 -1.698176,-0.94618 z m 7.941256,-0.80093 0.790985,0 0,1.46682 c 0.314829,-0.55575 0.678093,-0.97365 1.088041,-1.25412 0.409948,-0.27778 0.866703,-0.41808 1.371769,-0.41808 0.880346,0 1.634221,0.41063 2.259875,1.22658 0.625841,0.81602 0.938543,1.7973 0.938543,2.94623 0,1.17396 -0.30901,2.17014 -0.930721,2.98878 -0.619834,0.81846 -1.368015,1.22891 -2.246232,1.22891 -0.491549,0 -0.946178,-0.13267 -1.360193,-0.39537 -0.41389,-0.26539 -0.786917,-0.65844 -1.121082,-1.18159 l 0,4.29046 -0.790985,0 0,-10.89862 z m 3.188656,0.78604 c -0.691799,0 -1.272709,0.31026 -1.744922,0.93109 -0.473964,0.62065 -0.709195,1.39424 -0.709195,2.31789 0,0.60575 0.104818,1.15143 0.314892,1.63447 0.211764,0.48567 0.512951,0.86864 0.905377,1.15156 0.392551,0.28272 0.808318,0.4254 1.243485,0.4254 0.429597,0 0.833662,-0.14268 1.210631,-0.42803 0.376969,-0.28774 0.678156,-0.68579 0.901685,-1.19899 0.22528,-0.51314 0.336105,-1.05137 0.336105,-1.61458 0,-0.56564 -0.110825,-1.10387 -0.332226,-1.61188 -0.221588,-0.51069 -0.520835,-0.90362 -0.897742,-1.18654 -0.375029,-0.28028 -0.785102,-0.42039 -1.22809,-0.42039 z m 7.684937,-0.99142 c 0.952185,0 1.741042,0.44561 2.368635,1.33678 0.569394,0.81101 0.853064,1.77227 0.853064,2.88109 0,1.11382 -0.30125,2.09016 -0.901687,2.9237 -0.602187,0.83354 -1.375649,1.24893 -2.320012,1.24893 -0.948305,0 -1.723519,-0.41539 -2.325894,-1.24893 -0.602375,-0.83354 -0.901497,-1.80988 -0.901497,-2.9237 0,-1.10387 0.283666,-2.06263 0.853062,-2.87364 0.625653,-0.89618 1.41839,-1.34423 2.374329,-1.34423 z m 0,1.00631 c -0.660572,0 -1.228028,0.31539 -1.70218,0.94618 -0.474028,0.63078 -0.711198,1.39173 -0.711198,2.28791 0,0.57565 0.107008,1.11382 0.324654,1.61194 0.215518,0.50075 0.506943,0.88372 0.876278,1.1565 0.367207,0.27034 0.771272,0.40551 1.212446,0.40551 0.439172,0 0.8433,-0.13517 1.212446,-0.40551 0.367332,-0.27278 0.66076,-0.65575 0.876466,-1.1565 0.215518,-0.49812 0.324404,-1.03629 0.324404,-1.61194 0,-0.89618 -0.238923,-1.65713 -0.715015,-2.28791 -0.476093,-0.63079 -1.041609,-0.94618 -1.698301,-0.94618 z m 10.885299,-3.87983 0,11.05883 -0.78705,0 0,-1.37177 c -0.33228,0.52315 -0.70725,0.9162 -1.12308,1.18159 -0.41596,0.2627 -0.87058,0.39537 -1.36407,0.39537 -0.87628,0 -1.62452,-0.41045 -2.24624,-1.22891 -0.61977,-0.81864 -0.93078,-1.81482 -0.93078,-2.98878 0,-1.14893 0.31295,-2.13021 0.94055,-2.94623 0.62565,-0.81595 1.37953,-1.22658 2.25987,-1.22658 0.50913,0 0.96764,0.1403 1.37934,0.41808 0.41208,0.28047 0.77359,0.69837 1.08441,1.25412 l 0,-4.54572 0.78705,0 z m -3.18872,3.86494 c -0.44293,0 -0.85306,0.14011 -1.22997,0.42039 -0.37503,0.28292 -0.67428,0.67585 -0.8958,1.18654 -0.2214,0.50801 -0.33423,1.04624 -0.33423,1.61188 0,0.56321 0.11283,1.10144 0.33636,1.61458 0.22528,0.5132 0.52452,0.91125 0.90343,1.19899 0.37691,0.28535 0.78104,0.42803 1.21439,0.42803 0.43723,0 0.85106,-0.14268 1.24167,-0.4254 0.39042,-0.28292 0.69167,-0.66589 0.9015,-1.15156 0.21195,-0.48304 0.31683,-1.02872 0.31683,-1.63447 0,-0.92365 -0.23699,-1.69724 -0.7092,-2.31789 -0.47221,-0.62083 -1.05318,-0.93109 -1.74498,-0.93109 z m 8.34939,-3.5946 0.8433,0 0,9.74719 3.21581,0 0,1.0413 -4.05911,0 0,-10.78849 z m 11.42546,2.80856 0,7.97993 -0.78497,0 0,-1.37177 c -0.33417,0.52315 -0.70932,0.9162 -1.12496,1.18159 -0.41596,0.2627 -0.87059,0.39537 -1.36408,0.39537 -0.87646,0 -1.62452,-0.41045 -2.24623,-1.22891 -0.61983,-0.81864 -0.93078,-1.81482 -0.93078,-2.98878 0,-1.14893 0.3147,-2.13021 0.94048,-2.94623 0.62547,-0.81595 1.37959,-1.22658 2.25975,-1.22658 0.50907,0 0.96958,0.1403 1.37953,0.41808 0.41189,0.28047 0.7734,0.69837 1.08629,1.25412 l 0,-1.46682 0.78497,0 z m -3.18871,0.78604 c -0.44293,0 -0.85288,0.14011 -1.22978,0.42039 -0.37503,0.28292 -0.67428,0.67585 -0.89581,1.18654 -0.22158,0.50801 -0.33228,1.04624 -0.33228,1.61188 0,0.56321 0.1107,1.10144 0.33422,1.61458 0.22547,0.5132 0.52453,0.91125 0.90357,1.19899 0.37678,0.28535 0.78303,0.42803 1.21438,0.42803 0.43711,0 0.85112,-0.14268 1.24155,-0.4254 0.39061,-0.28292 0.6918,-0.66589 0.90168,-1.15156 0.21176,-0.48304 0.31677,-1.02872 0.31677,-1.63447 0,-0.92365 -0.23717,-1.69724 -0.70932,-2.31789 -0.47221,-0.62083 -1.05318,-0.93109 -1.74498,-0.93109 z m 4.98226,-0.78604 0.79661,0 0,1.43172 c 0.31878,-0.54812 0.67234,-0.95864 1.05901,-1.22897 0.38673,-0.27034 0.80838,-0.40813 1.26495,-0.40813 0.46245,0 0.8724,0.15275 1.23197,0.45569 0.35738,0.30281 0.62365,0.71082 0.79274,1.22396 0.17096,0.5132 0.25644,1.31407 0.25644,2.39811 l 0,4.10755 -0.79073,0 0,-3.80724 c 0,-0.91871 -0.0312,-1.53191 -0.0916,-1.83985 -0.0951,-0.5281 -0.27196,-0.92365 -0.5341,-1.19149 -0.26239,-0.2652 -0.60437,-0.40037 -1.02602,-0.40037 -0.48192,0 -0.91333,0.20519 -1.29418,0.6157 -0.38085,0.41296 -0.63347,0.92115 -0.75393,1.5269 -0.0757,0.39543 -0.11459,1.11883 -0.11459,2.17014 l 0,2.92621 -0.79661,0 0,-7.97993 z m 13.29279,-3.0789 0,11.05883 -0.78711,0 0,-1.37177 c -0.33222,0.52315 -0.70719,0.9162 -1.12321,1.18159 -0.41576,0.2627 -0.87039,0.39537 -1.36388,0.39537 -0.87647,0 -1.62452,-0.41045 -2.24623,-1.22891 -0.61996,-0.81864 -0.93079,-1.81482 -0.93079,-2.98878 0,-1.14893 0.31277,-2.13021 0.94036,-2.94623 0.62578,-0.81595 1.37972,-1.22658 2.26006,-1.22658 0.50895,0 0.96746,0.1403 1.37935,0.41808 0.41207,0.28047 0.7734,0.69837 1.08434,1.25412 l 0,-4.54572 0.78711,0 z m -3.18872,3.86494 c -0.44311,0 -0.85306,0.14011 -1.22997,0.42039 -0.37521,0.28292 -0.67427,0.67585 -0.8958,1.18654 -0.22159,0.50801 -0.33423,1.04624 -0.33423,1.61188 0,0.56321 0.11264,1.10144 0.33617,1.61458 0.22547,0.5132 0.52472,0.91125 0.90344,1.19899 0.37709,0.28535 0.78122,0.42803 1.21457,0.42803 0.43723,0 0.85087,-0.14268 1.24167,-0.4254 0.39043,-0.28292 0.69161,-0.66589 0.9015,-1.15156 0.21176,-0.48304 0.31677,-1.02872 0.31677,-1.63447 0,-0.92365 -0.23717,-1.69724 -0.70932,-2.31789 -0.47203,-0.62083 -1.053,-0.93109 -1.7448,-0.93109 z m 8.10653,0.0874 -0.51295,0.68347 c -0.4256,-0.53322 -0.84136,-0.80106 -1.24756,-0.80106 -0.25832,0 -0.4779,0.11014 -0.66257,0.33048 -0.18448,0.22027 -0.27584,0.47803 -0.27584,0.77089 0,0.25795 0.0758,0.50576 0.2274,0.74093 0.1515,0.23792 0.47028,0.52064 0.95575,0.84348 0.59287,0.39556 0.99499,0.77609 1.20676,1.14399 0.20988,0.37052 0.3147,0.78848 0.3147,1.25412 0,0.65332 -0.1786,1.20907 -0.53604,1.66457 -0.35569,0.45307 -0.8025,0.68079 -1.33698,0.68079 -0.35744,0 -0.69768,-0.1 -1.02208,-0.30031 -0.32447,-0.20025 -0.59268,-0.47803 -0.80626,-0.82853 l 0.50113,-0.73348 c 0.40607,0.59086 0.8376,0.88617 1.29229,0.88617 0.31859,0 0.59068,-0.13017 0.8142,-0.39556 0.22347,-0.2627 0.33611,-0.57315 0.33611,-0.93109 0,-0.29287 -0.0738,-0.55576 -0.22153,-0.78354 -0.14956,-0.22528 -0.48197,-0.51064 -1.00262,-0.85106 -0.55769,-0.3729 -0.93654,-0.73848 -1.1386,-1.10137 -0.20025,-0.36045 -0.30119,-0.77346 -0.30119,-1.23904 0,-0.60582 0.15926,-1.10888 0.47979,-1.50938 0.32058,-0.40056 0.72677,-0.60331 1.21651,-0.60331 0.56927,0 1.14236,0.36044 1.71958,1.07884 z m -1.36796,-2.31789 -0.79079,0 -1.65168,-1.88472 1.02602,0 1.00651,1.11627 1.04142,-1.11627 1.059,0 -1.69048,1.88472 z m 3.47232,-1.51682 0.80444,0 0,2.96125 1.26301,0 0,0.88109 -1.26301,0 0,7.09884 -0.80444,0 0,-7.09884 -1.08616,0 0,-0.88109 1.08616,0 0,-2.96125 z m 8.4718,8.29282 0.67052,0.45569 c -0.21965,0.55807 -0.47434,1.00613 -0.7617,1.34918 -0.28967,0.34286 -0.61414,0.60312 -0.97371,0.78085 -0.36114,0.17772 -0.76933,0.26783 -1.22415,0.26783 -1.01038,0 -1.79918,-0.42553 -2.36845,-1.27909 -0.56939,-0.85357 -0.85306,-1.81714 -0.85306,-2.89354 0,-1.01126 0.24093,-1.91488 0.7229,-2.70587 0.61001,-1.00631 1.42809,-1.512 2.45218,-1.512 1.05506,0 1.89836,0.51814 2.52789,1.54949 0.44881,0.72847 0.67622,1.63703 0.68385,2.72589 l -5.56674,0 c 0.0135,0.93122 0.24481,1.69223 0.68774,2.2854 0.44505,0.59318 0.99298,0.89105 1.64579,0.89105 0.31483,0 0.6219,-0.0701 0.91921,-0.2127 0.29712,-0.14262 0.55169,-0.33048 0.75957,-0.56571 0.20788,-0.23272 0.43529,-0.6132 0.67816,-1.13647 z m 0,-2.14767 c -0.10682,-0.54812 -0.26221,-0.98623 -0.46427,-1.31157 -0.20413,-0.32797 -0.47215,-0.59337 -0.80657,-0.79343 -0.33416,-0.20031 -0.68397,-0.3005 -1.05312,-0.3005 -0.60613,0 -1.1289,0.25275 -1.56401,0.75601 -0.31877,0.36539 -0.55963,0.91601 -0.72302,1.64949 l 4.61099,0 z m 2.65618,-6.46799 c 0.18266,0 0.33804,0.0825 0.46439,0.25025 0.12822,0.1652 0.19048,0.36545 0.19048,0.60081 0,0.23029 -0.0623,0.42803 -0.19048,0.59317 -0.12635,0.16765 -0.28173,0.25032 -0.46439,0.25032 -0.18079,0 -0.33617,-0.0827 -0.46245,-0.25032 -0.12829,-0.16514 -0.19231,-0.36288 -0.19231,-0.59317 0,-0.23536 0.064,-0.43561 0.19231,-0.60081 0.12628,-0.16777 0.28166,-0.25025 0.46245,-0.25025 z m -0.39255,3.28409 0.80831,0 0,9.18136 c 0,0.67083 -0.0933,1.159 -0.28166,1.46432 -0.18648,0.30544 -0.44493,0.4582 -0.77146,0.4582 -0.26802,0 -0.57315,-0.0827 -0.90932,-0.25032 l 0,-0.92365 c 0.21183,0.14262 0.40413,0.21271 0.57315,0.21271 0.21765,0 0.3791,-0.11515 0.48392,-0.34293 0.0659,-0.14775 0.0971,-0.453 0.0971,-0.91864 l 0,-8.88105 z m 2.466,0 0.79643,0 0,1.43172 c 0.31877,-0.54812 0.67252,-0.95864 1.05919,-1.22897 0.38655,-0.27034 0.8082,-0.40813 1.26476,-0.40813 0.46264,0 0.87259,0.15275 1.23216,0.45569 0.35738,0.30281 0.62365,0.71082 0.79255,1.22396 0.17115,0.5132 0.25663,1.31407 0.25663,2.39811 l 0,4.10755 -0.79073,0 0,-3.80724 c 0,-0.91871 -0.0312,-1.53191 -0.0915,-1.83985 -0.0951,-0.5281 -0.27197,-0.92365 -0.53429,-1.19149 -0.26233,-0.2652 -0.60438,-0.40037 -1.02603,-0.40037 -0.48179,0 -0.91314,0.20519 -1.29398,0.6157 -0.38085,0.41296 -0.63348,0.92115 -0.75394,1.5269 -0.0757,0.39543 -0.11477,1.11883 -0.11477,2.17014 l 0,2.92621 -0.79643,0 0,-7.97993 z m 12.32496,5.33157 0.67034,0.45569 c -0.21959,0.55807 -0.47416,1.00613 -0.7617,1.34918 -0.28967,0.34286 -0.61395,0.60312 -0.97352,0.78085 -0.36133,0.17772 -0.76946,0.26783 -1.22409,0.26783 -1.01045,0 -1.79943,-0.42553 -2.36864,-1.27909 -0.56945,-0.85357 -0.85306,-1.81714 -0.85306,-2.89354 0,-1.01126 0.24105,-1.91488 0.72284,-2.70587 0.6102,-1.00631 1.42815,-1.512 2.45218,-1.512 1.05512,0 1.89836,0.51814 2.52795,1.54949 0.44894,0.72847 0.67616,1.63703 0.68398,2.72589 l -5.56693,0 c 0.0137,0.93122 0.24481,1.69223 0.68773,2.2854 0.44506,0.59318 0.99305,0.89105 1.6458,0.89105 0.31489,0 0.6219,-0.0701 0.91921,-0.2127 0.29731,-0.14262 0.55168,-0.33048 0.75976,-0.56571 0.20788,-0.23272 0.4351,-0.6132 0.67815,-1.13647 z m 0,-2.14767 c -0.10694,-0.54812 -0.26239,-0.98623 -0.46439,-1.31157 -0.204,-0.32797 -0.47221,-0.59337 -0.80644,-0.79343 -0.33416,-0.20031 -0.68397,-0.3005 -1.05312,-0.3005 -0.60613,0 -1.12891,0.25275 -1.5642,0.75601 -0.31877,0.36539 -0.55963,0.91601 -0.72283,1.64949 l 4.61098,0 z m 2.35481,-3.1839 0.79092,0 0,1.37921 c 0.27797,-0.50819 0.56164,-0.87859 0.855,-1.11401 0.40219,-0.31289 0.82578,-0.47058 1.2687,-0.47058 0.29925,0 0.58498,0.0777 0.85501,0.2279 0.2682,0.15257 0.48973,0.35288 0.65882,0.60582 0.17096,0.25275 0.31858,0.6132 0.44486,1.08135 0.26627,-0.62585 0.5985,-1.10144 0.99674,-1.4269 0.39837,-0.32535 0.8259,-0.48817 1.28642,-0.48817 0.42746,0 0.80637,0.1403 1.13472,0.41808 0.32853,0.28047 0.57328,0.66839 0.7326,1.16651 0.15932,0.49806 0.23892,1.24649 0.23892,2.24536 l 0,4.35536 -0.81401,0 0,-4.35536 c 0,-0.85607 -0.0486,-1.44449 -0.14193,-1.76482 -0.0952,-0.3204 -0.25845,-0.5781 -0.48761,-0.7734 -0.22934,-0.19531 -0.50343,-0.29287 -0.82202,-0.29287 -0.38848,0 -0.74236,0.14512 -1.06288,0.44043 -0.32053,0.29286 -0.55382,0.68347 -0.70332,1.17145 -0.1478,0.49068 -0.22158,1.30663 -0.22158,2.45062 l 0,3.12395 -0.7908,0 0,-4.08502 c 0,-0.96377 -0.0466,-1.61708 -0.13992,-1.96263 -0.0933,-0.34287 -0.25457,-0.62065 -0.48573,-0.82841 -0.23129,-0.20788 -0.50714,-0.31039 -0.82591,-0.31039 -0.36914,0 -0.71307,0.14262 -1.0336,0.42804 -0.32071,0.28785 -0.55769,0.67083 -0.71113,1.15637 -0.15363,0.48317 -0.23135,1.22415 -0.23135,2.22033 l 0,3.38171 -0.79092,0 0,-7.97993 z"
       inkscape:connector-curvature="0" /><path
       id="path3290"
       style="fill:#2d3f9c;fill-opacity:1;fill-rule:evenodd;stroke:none"
       d="m 81.59558,174.73384 2.889784,-10.64193 c 0,0 5.115615,1.9e-4 7.536753,0.0392 2.4212,0.0391 2.655492,2.62126 2.655492,2.62126 0,0 -0.03917,1.13492 -0.03917,2.23028 0,1.09536 -1.757187,1.56488 -1.757187,1.56488 0,0 0.458884,0.17616 0.888356,0.41083 0.429409,0.23473 0.517394,0.6065 0.517394,0.6065 l -0.898118,3.20818 -2.030714,0 c 0,0 0.03924,-0.86063 0.07822,-1.52584 0.03905,-0.6652 -0.156445,-1.21282 -1.171583,-1.25199 -1.0152,-0.0392 -5.467053,0.039 -5.467053,0.039 l 0,2.73884 -3.202172,-0.0392 z m 3.338905,-7.94232 -0.0587,2.60173 c 0,0 5.057105,0.0195 5.89665,0 0.839607,-0.0195 0.800559,-0.82164 0.800559,-0.91939 0,-0.0977 0,-0.74342 0,-0.97809 0,-0.23467 -0.03886,-0.62597 -0.663764,-0.68473 -0.624965,-0.0587 -5.974747,-0.0195 -5.974747,-0.0195"
       inkscape:connector-curvature="0" /><path
       id="path3292"
       style="fill:#2c4199;fill-opacity:1;fill-rule:evenodd;stroke:none"
       d="m 107.09556,174.77301 2.85074,-10.64193 c 0,0 5.97455,0 7.73193,0.0783 1.75731,0.0782 2.61644,1.17371 2.65543,2.15186 0.0391,0.97809 0.0782,1.21276 -0.078,1.7605 -0.15625,0.54781 -0.58573,0.78248 -0.85907,0.97816 -0.27334,0.19562 -0.62496,0.31308 -0.62496,0.31308 0,0 0.47115,0.14881 0.78103,0.2739 0.81815,0.3301 1.10156,1.10919 1.15657,1.97715 0.0571,0.89824 -0.23805,1.96719 -0.91389,2.54229 -0.3209,0.27296 -0.62615,0.5779 -1.21883,0.60575 -0.31201,0.0145 -11.48091,-0.0391 -11.48091,-0.0391 z m 3.35881,-4.17157 0,1.72152 c 0,0 5.46699,0.0197 5.97468,0.0392 0.50769,0.0195 0.8983,-0.35213 0.8983,-0.60651 0,-0.25438 -0.0195,-0.58679 -0.0195,-0.76295 0,-0.17615 -0.33191,-0.41082 -0.5662,-0.43034 -0.23436,-0.0195 -6.28726,0.039 -6.28726,0.039 z m -0.0786,-3.92732 0,1.72152 c 0,0 5.46705,0.0197 5.97468,0.0392 0.5077,0.0195 0.89831,-0.35212 0.89831,-0.6065 0,-0.25438 -0.0195,-0.58679 -0.0195,-0.76295 0,-0.17616 -0.33185,-0.41082 -0.5662,-0.43035 -0.23436,-0.0195 -6.28726,0.039 -6.28726,0.039"
       inkscape:connector-curvature="0" /><path
       id="path3294"
       style="fill:#2c4199;fill-opacity:1;fill-rule:evenodd;stroke:none"
       d="m 94.326046,174.77301 2.850735,-10.64193 c 0,0 5.974559,0 7.731929,0.0783 1.75738,0.0782 2.61645,1.17371 2.6555,2.15186 0.039,0.97809 0.0782,1.21276 -0.0781,1.7605 -0.15626,0.54781 -0.58573,0.78248 -0.85907,0.97816 -0.27334,0.19562 -0.6249,0.31308 -0.6249,0.31308 0,0 0.47115,0.14881 0.78103,0.2739 0.30989,0.12503 0.58573,0.31289 0.58573,0.31289 l -1.09342,4.38195 c 0,0 -0.15595,0.43035 -0.46846,0.43035 -0.31258,0 -11.480974,-0.0391 -11.480974,-0.0391 z m 3.358805,-4.17157 0,1.72152 c 0,0 5.467049,0.0197 5.974689,0.0392 0.50769,0.0195 0.8983,-0.35213 0.8983,-0.60651 0,-0.25438 -0.0195,-0.58679 -0.0195,-0.76295 0,-0.17615 -0.33185,-0.41082 -0.56621,-0.43034 -0.23435,-0.0195 -6.287259,0.039 -6.287259,0.039 z m -0.0786,-3.92732 0,1.72152 c 0,0 5.467059,0.0197 5.974749,0.0392 0.50763,0.0195 0.89824,-0.35212 0.89824,-0.6065 0,-0.25438 -0.0195,-0.58679 -0.0195,-0.76295 0,-0.17616 -0.33191,-0.41082 -0.56627,-0.43035 -0.23429,-0.0195 -6.287259,0.039 -6.287259,0.039"
       inkscape:connector-curvature="0" /><path
       id="path3296"
       style="fill:#ed1c24;fill-opacity:1;fill-rule:evenodd;stroke:#231f20;stroke-width:0.8869161;stroke-linecap:butt;stroke-linejoin:miter;stroke-miterlimit:22.92558479;stroke-opacity:1;stroke-dasharray:none"
       d="m 61.131617,160.94261 5.619555,0.078 c 0,0 3.43421,6.32205 7.258657,11.94161 3.824446,5.61962 8.039128,12.17577 8.039128,12.17577 l -15.609986,-0.2341 -5.307354,-23.96132 z"
       inkscape:connector-curvature="0" /><path
       id="path3298"
       style="fill:#ffffff;fill-opacity:1;fill-rule:evenodd;stroke:#231f20;stroke-width:0.8869161;stroke-linecap:butt;stroke-linejoin:miter;stroke-miterlimit:22.92558479;stroke-opacity:1;stroke-dasharray:none"
       d="m 40.682546,160.86452 -4.058612,-0.078 c 0,0 -2.263442,6.63426 -4.604918,12.33191 -2.341538,5.69765 -5.697652,12.40994 -5.697652,12.40994 l 14.829453,-0.0781 -0.468271,-24.58571 z"
       inkscape:connector-curvature="0" /><path
       id="path3300"
       style="fill:#ffffff;fill-opacity:1;fill-rule:evenodd;stroke:#231f20;stroke-width:0.8869161;stroke-linecap:butt;stroke-linejoin:miter;stroke-miterlimit:22.92558479;stroke-opacity:1;stroke-dasharray:none"
       d="m 39.043507,141.82038 3.356114,0.078 c 0,0 2.575454,-11.70745 2.419573,-23.57108 -0.08411,-6.3949 -1.894858,-16.98113 -4.91837,-24.531591 -2.444918,-6.105597 -6.86717,-10.278602 -6.86717,-10.278602 0,0 2.731711,18.029493 3.902481,30.985743 1.170769,12.95631 2.107372,27.31749 2.107372,27.31749 z"
       inkscape:connector-curvature="0" /><path
       id="path3302"
       style="fill:#ed1c24;fill-opacity:1;fill-rule:evenodd;stroke:none"
       d="m 57.385205,141.82038 1.404873,0.15607 c 0,0 -0.624339,-7.96109 -0.07803,-18.80997 0.763513,-15.16243 4.667746,-31.189494 11.473339,-44.800681 L 59.015233,88.74947 c -2.211502,9.879543 -3.293723,17.52187 -4.127636,27.39252 -0.936415,11.08286 2.497608,25.67839 2.497608,25.67839"
       inkscape:connector-curvature="0" /><path
       id="path3304"
       style="fill:#2e3192;fill-opacity:1;fill-rule:evenodd;stroke:none"
       d="M 70.185382,78.365799 C 73.878916,70.2696 81.892888,59.789935 81.892888,59.789935 l -12.566074,0.0781 c 0,0 -6.634568,13.34667 -9.444001,25.132022 -0.28523,1.196677 -1.130157,4.077073 -0.88748,3.838464 l 1.305562,-1.28391 9.884487,-9.188809 z"
       inkscape:connector-curvature="0" /><path
       id="path3306"
       style="fill:none;stroke:#231f20;stroke-width:0.8869161;stroke-linecap:butt;stroke-linejoin:miter;stroke-miterlimit:22.92558479;stroke-opacity:1;stroke-dasharray:none"
       d="m 57.385205,141.82038 1.404873,0.15607 c 0,0 -0.624339,-7.96109 -0.07803,-18.80997 0.763513,-15.16243 4.667746,-31.189494 11.473339,-44.800681 4.214682,-8.429364 11.707506,-18.575864 11.707506,-18.575864 l -12.566074,0.0781 c 0,0 -6.634192,13.346482 -9.444001,25.132022 -2.809809,11.78554 -4.058613,20.058833 -4.995216,31.141933 -0.936603,11.08304 2.497608,25.67839 2.497608,25.67839 z"
       inkscape:connector-curvature="0" /><path
       id="path3308"
       style="fill:#2e3192;fill-opacity:1;fill-rule:evenodd;stroke:#231f20;stroke-width:0.8869161;stroke-linecap:butt;stroke-linejoin:miter;stroke-miterlimit:22.92558479;stroke-opacity:1;stroke-dasharray:none"
       d="m 51.786926,34.579878 c 0,7.283626 -5.906787,13.190413 -13.190475,13.190413 -7.283626,0 -13.190413,-5.906787 -13.190413,-13.190413 0,-7.283688 5.906787,-13.190476 13.190413,-13.190476 7.283688,0 13.190475,5.906788 13.190475,13.190476 z"
       inkscape:connector-curvature="0" /><path
       id="path3310"
       style="fill:#2e3192;fill-opacity:1;fill-rule:evenodd;stroke:#231f20;stroke-width:0.8869161;stroke-linecap:butt;stroke-linejoin:miter;stroke-miterlimit:22.92558479;stroke-opacity:1;stroke-dasharray:none"
       d="m 37.638571,56.667988 c 0,0 1.873206,0.156069 1.561005,5.073187 -0.312201,4.917181 -0.156069,8.039191 -0.156069,8.039191 0,0 4.292716,-11.629471 15.766056,-13.580711 11.473339,-1.951241 23.727149,-1.248804 29.737002,-1.561005 6.009853,-0.312201 7.102525,-0.312201 7.102525,-0.312201 0,0 1.717137,-1.326839 2.965941,-2.497608 1.248741,-1.170707 2.497545,-2.653677 2.497545,-2.653677 l 27.317494,-0.46827 0.15607,-8.585496 -8.03913,0 0.078,4.995153 4.52689,-0.156069 0.0781,1.795171 c 0,0 -28.488195,-1.248803 -36.059053,-0.936602 -7.570858,0.312201 -24.975953,1.014637 -24.975953,1.014637 0,0 -0.780534,-1.873206 -0.624402,-3.278079 0.156069,-1.404936 0.546367,-3.200044 0.546367,-3.200044 0,0 -2.185407,0.234103 -3.043975,0.156069 -0.858568,-0.07803 -2.263441,-0.46827 -2.263441,-0.46827 0,0 0.3122,0.780471 0.3122,1.795108 0,1.014638 0,1.561005 0,1.561005 0,0 1.951241,-0.702436 1.951241,0.312201 0,1.014638 -0.312201,1.63904 -0.312201,2.341476 0,0.702499 0,1.17077 0,1.17077 0,0 -5.697652,0.624402 -9.1318,1.795171 -3.434211,1.170707 -4.683015,2.341476 -6.009854,4.214682 -1.326838,1.873206 -3.980578,3.434211 -3.980578,3.434211 z"
       inkscape:connector-curvature="0" /><path
       id="path3312"
       style="fill:#2e3192;fill-opacity:1;fill-rule:evenodd;stroke:#231f20;stroke-width:0.35475394;stroke-linecap:butt;stroke-linejoin:miter;stroke-miterlimit:22.92558479;stroke-opacity:1;stroke-dasharray:none"
       d="m 24.135957,51.126405 13.346545,-0.15607 c 0,0 -8.19526,4.917119 -11.161138,7.102526 -2.965878,2.185407 -7.726927,5.697652 -6.868422,10.536736 0.858569,4.839084 3.746412,7.258657 6.400089,7.570858 2.65374,0.312201 6.165985,0.780471 13.502677,-3.590343 7.336692,-4.370751 10.848937,-9.522036 10.848937,-9.522036 l 12.644046,-1.48297 c 0,0 -3.043913,5.07325 -17.639262,11.551374 -14.595348,6.478123 -20.761271,7.336691 -25.210119,1.795171 -4.448848,-5.541583 0.858568,-16.702721 2.029275,-19.122232 1.170769,-2.419573 2.107372,-4.683014 2.107372,-4.683014 z"
       inkscape:connector-curvature="0" /><path
       id="path3314"
       style="fill:#ffffff;fill-opacity:1;fill-rule:evenodd;stroke:none"
       d="m 24.194843,59.69757 c -2.653489,2.160501 -5.412422,5.13176 -4.741901,8.912027 0.858381,4.838896 3.746412,7.258657 6.400089,7.570858 2.114632,0.248684 4.774754,0.59668 9.480422,-1.484034 l 1.702055,1.78203 c -8.946319,3.213498 -13.525893,2.825578 -17.036198,-1.5468 -4.170502,-5.195152 0.23329,-15.3297 1.764633,-18.569669 l 2.4309,3.335588 z"
       inkscape:connector-curvature="0" /><path
       id="path3316"
       style="fill:none;stroke:#231f20;stroke-width:0.8869161;stroke-linecap:butt;stroke-linejoin:miter;stroke-miterlimit:22.92558479;stroke-opacity:1;stroke-dasharray:none"
       d="m 24.135957,51.126405 13.346545,-0.15607 c 0,0 -8.19526,4.917119 -11.161138,7.102526 -2.965878,2.185407 -7.726927,5.697652 -6.868422,10.536736 0.858569,4.839084 3.746412,7.258657 6.400089,7.570858 2.65374,0.312201 6.165985,0.780471 13.502677,-3.590343 7.336692,-4.370751 10.848937,-9.522036 10.848937,-9.522036 l 12.644046,-1.48297 c 0,0 -3.043913,5.07325 -17.639262,11.551374 -14.595348,6.478123 -20.761271,7.336691 -25.210119,1.795171 -4.448848,-5.541583 0.858568,-16.702721 2.029275,-19.122232 1.170769,-2.419573 2.107372,-4.683014 2.107372,-4.683014 z"
       inkscape:connector-curvature="0" /><g
       transform="matrix(0.30342756,0,0,-0.30342756,-67.835172,401.49231)"
       id="g3318"><path
         id="path3320"
         style="fill:none;stroke:#7a7f81;stroke-width:4.38460016;stroke-linecap:round;stroke-linejoin:miter;stroke-miterlimit:4;stroke-opacity:1;stroke-dasharray:none"
         d="m 592.3916,974.7034 c 17.9059,41.3402 18.0468,77.1412 9.1556,113.7274 11.9651,0.7027 21.5232,0.5893 38.0475,8.7766 30.9759,-11.9018 61.9486,-8.0305 92.9256,-8.047 0.9531,-19.675 5.5701,-30.9923 0.3632,-64.7535"
         inkscape:connector-curvature="0" /></g><g
       transform="matrix(0.30342756,0,0,-0.30342756,-67.835172,401.49231)"
       id="g3322"><path
         id="path3324"
         style="fill:none;stroke:#7a7f81;stroke-width:4.38460016;stroke-linecap:round;stroke-linejoin:miter;stroke-miterlimit:4;stroke-opacity:1;stroke-dasharray:none"
         d="m 639.3597,1080.8203 c 2.918,-116.6164 -4.1834,-95.5819 -8.1791,-148.6048"
         inkscape:connector-curvature="0" /></g><g
       transform="matrix(0.30342756,0,0,-0.30342756,-67.835172,401.49231)"
       id="g3326"><path
         id="path3328"
         style="fill:none;stroke:#7a7f81;stroke-width:4.38460016;stroke-linecap:round;stroke-linejoin:miter;stroke-miterlimit:4;stroke-opacity:1;stroke-dasharray:none"
         d="m 834.5903,919.0431 c -9.3904,26.5703 -12.5269,37.3675 -6.5855,65.8523 l -54.5119,17.5626 -63.6562,0 -54.5125,-10.2464 c -0.0539,-19.7538 1.3444,-39.5121 -3.2925,-59.2659"
         inkscape:connector-curvature="0" /></g><g
       transform="matrix(0.30342756,0,0,-0.30342756,-67.835172,401.49231)"
       id="g3330"><path
         id="path3332"
         style="fill:none;stroke:#7a7f81;stroke-width:4.38460016;stroke-linecap:round;stroke-linejoin:miter;stroke-miterlimit:4;stroke-opacity:1;stroke-dasharray:none"
         d="m 709.4112,993.1173 c -0.6058,-30.9836 1.1089,-39.0498 -3.1377,-60.0149"
         inkscape:connector-curvature="0" /></g><g
       transform="matrix(0.30342756,0,0,-0.30342756,-67.835172,401.49231)"
       id="g3334"><path
         id="path3336"
         style="fill:none;stroke:#7a7f81;stroke-width:4.38460016;stroke-linecap:round;stroke-linejoin:miter;stroke-miterlimit:4;stroke-opacity:1;stroke-dasharray:none"
         d="m 772.5353,994.8481 c -6.0576,-22.7222 -1.4218,-33.5585 -1.3201,-56.285"
         inkscape:connector-curvature="0" /></g><g
       transform="matrix(0.30342756,0,0,-0.30342756,-67.835172,401.49231)"
       id="g3338"><path
         id="path3340"
         style="fill:none;stroke:#7a7f81;stroke-width:4.38460016;stroke-linecap:round;stroke-linejoin:miter;stroke-miterlimit:4;stroke-opacity:1;stroke-dasharray:none"
         d="m 672.8284,1102.2772 c 10.2702,58.3756 2.9452,62.7273 0.5201,82.1021 25.3163,-2.4962 49.004,-0.6477 71.3977,4.6565 10.9491,-6.6685 25.9265,-11.9254 36.8756,-10.8632 -15.2425,-57.7968 -25.6482,-103.301 -18.1559,-162.8277"
         inkscape:connector-curvature="0" /></g><g
       transform="matrix(0.30342756,0,0,-0.30342756,-67.835172,401.49231)"
       id="g3342"><path
         id="path3344"
         style="fill:none;stroke:#7a7f81;stroke-width:4.38460016;stroke-linecap:round;stroke-linejoin:miter;stroke-miterlimit:4;stroke-opacity:1;stroke-dasharray:none"
         d="m 746.1643,1172.7774 c 8.1454,-59.3348 4.0638,-101.4491 -0.9487,-161.6522"
         inkscape:connector-curvature="0" /></g><g
       transform="matrix(0.30342756,0,0,-0.30342756,-67.835172,401.49231)"
       id="g3346"><path
         id="path3348"
         style="fill:none;stroke:#7a7f81;stroke-width:4.38460016;stroke-linecap:round;stroke-linejoin:miter;stroke-miterlimit:4;stroke-opacity:1;stroke-dasharray:none"
         d="m 689.3487,985.9927 c 0,0 0.4178,-1.429 -0.5162,-10.2184 -0.3197,-3.0002 -2.7768,-8.4376 -2.7768,-8.4376 0,0 5.1012,-0.1953 7.2969,-0.1953 2.1946,0 6.2419,0.9261 6.2419,0.9261 0,0 -1.4417,5.5502 -2.1917,7.3199 -1.5744,3.7035 2.067,11.6833 2.067,11.6833 l -10.1211,-1.078 z"
         inkscape:connector-curvature="0" /></g><g
       transform="matrix(0.30342756,0,0,-0.30342756,-67.835172,401.49231)"
       id="g3350"><path
         id="path3352"
         style="fill:none;stroke:#7a7f81;stroke-width:4.38460016;stroke-linecap:round;stroke-linejoin:miter;stroke-miterlimit:4;stroke-opacity:1;stroke-dasharray:none"
         d="m 731.8919,988.1456 c -3.5164,-0.2274 -7.1104,-0.4337 -11.8137,-0.3249 0,0 0.4533,-7.8278 0,-10.2424 -1.0967,-5.8589 -3.289,-11.34 -3.289,-11.34 0,0 4.0246,0.7313 6.9494,0.7313 2.9265,0 8.4773,0.605 8.4773,0.605 0,0 -1.527,4.153 -1.8913,7.8085 -0.3671,3.6604 1.5673,12.7625 1.5673,12.7625 z"
         inkscape:connector-curvature="0" /></g><g
       transform="matrix(0.30342756,0,0,-0.30342756,-67.835172,401.49231)"
       id="g3354"><path
         id="path3356"
         style="fill:none;stroke:#7a7f81;stroke-width:4.38460016;stroke-linecap:round;stroke-linejoin:miter;stroke-miterlimit:4;stroke-opacity:1;stroke-dasharray:none"
         d="m 748.2504,985.9927 15.4493,0.3682 c 0,0 0.4998,-4.3016 -0.6403,-8.9181 -1.0862,-4.3875 0.8161,-9.7435 0.7934,-9.7435 l -16.3321,0 c 0.0153,0 1.4567,5.4893 2.1952,9.1494 0.805,4.0082 -1.4655,9.144 -1.4655,9.144 z"
         inkscape:connector-curvature="0" /></g><g
       transform="matrix(0.30342756,0,0,-0.30342756,-67.835172,401.49231)"
       id="g3358"><path
         id="path3360"
         style="fill:none;stroke:#7a7f81;stroke-width:4.38460016;stroke-linecap:round;stroke-linejoin:miter;stroke-miterlimit:4;stroke-opacity:1;stroke-dasharray:none"
         d="m 736.9534,957.8871 12.2423,0 c -1.6441,-7.5308 -0.9144,-3.2346 -2.0432,-11.4054 0.235,-3.2463 0.1491,-3.7888 0.5156,-5.7889 l -9.7616,-0.4303 c 0.93,3.3831 0.5862,3.3077 0.2114,7.5736 -0.3478,3.9614 -1.1645,10.051 -1.1645,10.051 z"
         inkscape:connector-curvature="0" /></g><g
       transform="matrix(0.30342756,0,0,-0.30342756,-67.835172,401.49231)"
       id="g3362"><path
         id="path3364"
         style="fill:none;stroke:#7a7f81;stroke-width:4.38460016;stroke-linecap:round;stroke-linejoin:miter;stroke-miterlimit:4;stroke-opacity:1;stroke-dasharray:none"
         d="m 778.9816,984.8954 c 2.562,0 7.683,-2.196 7.683,-2.196 0,0 -2.5512,-6.586 -2.9265,-8.7806 -0.9283,-5.4264 -0.9875,-14.0551 -0.9875,-14.0551 l -8.4609,1.4219 c 0,0 1.0312,3.856 2.8627,11.5393 1.8292,7.6793 1.8292,12.0705 1.8292,12.0705 z"
         inkscape:connector-curvature="0" /></g><g
       transform="matrix(0.30342756,0,0,-0.30342756,-67.835172,401.49231)"
       id="g3366"><path
         id="path3368"
         style="fill:none;stroke:#7a7f81;stroke-width:4.38460016;stroke-linecap:round;stroke-linejoin:miter;stroke-miterlimit:4;stroke-opacity:1;stroke-dasharray:none"
         d="m 796.8169,979.7117 c 4.6287,-0.3204 7.9418,-2.4962 7.9418,-2.4962 0,0 -1.6843,-4.7852 -3.0512,-8.9533 -1.254,-3.8276 -0.5624,-11.3198 -0.5624,-11.3198 l -10.394,1.2072 c 0,0 -0.5089,-1.6801 2.4097,5.656 3.2414,8.1558 3.6561,15.9061 3.6561,15.9061 z"
         inkscape:connector-curvature="0" /></g><g
       transform="matrix(0.30342756,0,0,-0.30342756,-67.835172,401.49231)"
       id="g3370"><path
         id="path3372"
         style="fill:none;stroke:#7a7f81;stroke-width:4.38460016;stroke-linecap:round;stroke-linejoin:miter;stroke-miterlimit:4;stroke-opacity:1;stroke-dasharray:none"
         d="m 812.3369,975.7502 c 4.754,0.3632 7.9838,-1.8314 7.9838,-1.8314 0,0 -1.1172,-5.7232 -1.5475,-9.1443 -0.4203,-3.348 0.4502,-10.6101 0.4502,-10.6101 l -9.0162,1.2745 c 0,0 -0.9955,5.7413 -0.1287,10.4329 0.9261,5.0153 2.2584,9.8784 2.2584,9.8784 z"
         inkscape:connector-curvature="0" /></g><g
       transform="matrix(0.30342756,0,0,-0.30342756,-67.835172,401.49231)"
       id="g3374"><path
         id="path3376"
         style="fill:none;stroke:#7a7f81;stroke-width:4.38460016;stroke-linecap:round;stroke-linejoin:miter;stroke-miterlimit:4;stroke-opacity:1;stroke-dasharray:none"
         d="m 704.2589,1074.4347 c 5.1205,0 10.3357,0.093 10.3357,0.093 0,0 -0.028,0.29 -0.0941,-8.2301 -0.059,-7.6839 -1.2807,-16.9223 -1.2807,-16.9223 0,0 -9.8759,-0.5425 -10.4264,0.184 -0.273,0.3631 2.6518,13.6247 2.6518,16.5543 0,2.926 -1.1863,8.3211 -1.1863,8.3211 z"
         inkscape:connector-curvature="0" /></g><g
       transform="matrix(0.30342756,0,0,-0.30342756,-67.835172,401.49231)"
       id="g3378"><path
         id="path3380"
         style="fill:none;stroke:#7a7f81;stroke-width:4.38460016;stroke-linecap:round;stroke-linejoin:miter;stroke-miterlimit:4;stroke-opacity:1;stroke-dasharray:none"
         d="m 720.4453,1074.8914 c 2.0123,-4.2968 1.1923,-14.082 1.1923,-14.082 l -1.5594,-11.7065 8.7815,-0.2783 c 0,0 0.2735,13.2664 0.2735,17.6533 0,4.3897 -0.18,8.9648 -0.18,8.9648 l -8.5079,-0.5513 z"
         inkscape:connector-curvature="0" /></g><path
       id="path3382"
       style="fill:none;stroke:#7a7f81;stroke-width:0.8869161;stroke-linecap:butt;stroke-linejoin:round;stroke-miterlimit:22.92558479;stroke-opacity:1;stroke-dasharray:none"
       d="m 122.87188,165.81342 0,8.88137"
       inkscape:connector-curvature="0" /><path
       id="path3384"
       style="fill:none;stroke:#7a7f81;stroke-width:0.8869161;stroke-linecap:butt;stroke-linejoin:round;stroke-miterlimit:22.92558479;stroke-opacity:1;stroke-dasharray:none"
       d="m 122.83289,164.28759 0,0.46952"
       inkscape:connector-curvature="0" /><path
       id="path3386"
       style="fill:none;stroke:#7a7f81;stroke-width:0.8869161;stroke-linecap:butt;stroke-linejoin:round;stroke-miterlimit:22.92558479;stroke-opacity:1;stroke-dasharray:none"
       d="m 125.13695,165.77425 0.039,8.99876"
       inkscape:connector-curvature="0" /><path
       id="path3388"
       style="fill:none;stroke:#7a7f81;stroke-width:0.8869161;stroke-linecap:butt;stroke-linejoin:round;stroke-miterlimit:22.92558479;stroke-opacity:1;stroke-dasharray:none"
       d="m 125.14934,168.66992 c 0,0 0.72941,-3.28697 4.47832,-3.16957 3.74885,0.11746 3.7879,2.89529 3.7879,2.89529 l 0,6.3382"
       inkscape:connector-curvature="0" /><path
       id="path3390"
       style="fill:none;stroke:#7a7f81;stroke-width:0.8869161;stroke-linecap:butt;stroke-linejoin:round;stroke-miterlimit:22.92558479;stroke-opacity:1;stroke-dasharray:none"
       d="m 134.3138,165.81342 4.52977,8.95959 4.64697,-8.99876"
       inkscape:connector-curvature="0" /><path
       id="path3392"
       style="fill:none;stroke:#7a7f81;stroke-width:0.8869161;stroke-linecap:butt;stroke-linejoin:round;stroke-miterlimit:22.92558479;stroke-opacity:1;stroke-dasharray:none"
       d="m 143.8421,170.07798 9.45007,-0.0391 c 0,0 0.15613,-4.38214 -4.64697,-4.53858 -4.8031,-0.15645 -5.91123,5.07074 -3.80242,7.78687 0.63323,0.81564 1.86251,1.36946 3.14767,1.56245 2.2548,0.33842 4.4822,-0.62296 5.18464,-3.05017"
       inkscape:connector-curvature="0" /><path
       id="path3394"
       style="fill:none;stroke:#7a7f81;stroke-width:0.8869161;stroke-linecap:butt;stroke-linejoin:round;stroke-miterlimit:22.92558479;stroke-opacity:1;stroke-dasharray:none"
       d="m 162.39105,168.27824 c 0,0 0.078,-2.89516 -3.70986,-2.81694 -3.7879,0.0783 -3.70968,2.11288 -3.70968,2.42577 0,0.31295 -0.15613,1.48666 1.6401,1.95624 1.79624,0.46953 3.76362,0.51777 4.95936,0.78242 1.19574,0.2647 1.32759,1.56494 1.21051,2.30837 -0.11709,0.74342 -0.35125,2.0344 -4.02207,2.07364 -3.67082,0.0392 -3.75861,-1.87252 -4.13946,-2.85612"
       inkscape:connector-curvature="0" /><path
       id="path3396"
       style="fill:none;stroke:#7a7f81;stroke-width:0.8869161;stroke-linecap:butt;stroke-linejoin:round;stroke-miterlimit:22.92558479;stroke-opacity:1;stroke-dasharray:none"
       d="m 163.28911,165.85266 4.60798,0"
       inkscape:connector-curvature="0" /><path
       id="path3398"
       style="fill:none;stroke:#7a7f81;stroke-width:0.8869161;stroke-linecap:butt;stroke-linejoin:round;stroke-miterlimit:22.92558479;stroke-opacity:1;stroke-dasharray:none"
       d="m 165.59323,163.818 c 0,0 0,9.38994 0,9.93774 0,0.54775 0.46864,0.93905 1.09336,1.01727 0.62477,0.0782 1.75718,-0.15644 1.75718,-0.15644"
       inkscape:connector-curvature="0" /><path
       id="path3400"
       style="fill:none;stroke:#7a7f81;stroke-width:0.8869161;stroke-linecap:butt;stroke-linejoin:round;stroke-miterlimit:22.92558479;stroke-opacity:1;stroke-dasharray:none"
       d="m 173.18849,172.03417 c 0,0 0.23435,-0.93874 0.85913,-1.03661 0.62472,-0.0979 1.40575,-0.0782 1.65963,-0.0588 0.25381,0.0195 0.91758,0.35213 0.89805,1.1346 -0.0195,0.78248 0.0391,1.74086 0,2.11269 -0.039,0.37178 0.0392,0.52822 0.1368,0.58692 0.0976,0.0588 0.44893,0.0588 0.44893,0.0588"
       inkscape:connector-curvature="0" /><path
       id="path3402"
       style="fill:none;stroke:#7a7f81;stroke-width:0.8869161;stroke-linecap:butt;stroke-linejoin:round;stroke-miterlimit:22.92558479;stroke-opacity:1;stroke-dasharray:none"
       d="m 176.60305,172.19099 c 0,0 -0.27109,0.44949 -0.60294,0.4692 -0.33191,0.0197 -1.46432,0.21533 -1.89398,0.23486 -0.4296,0.0195 -0.82021,0.19549 -0.99586,0.50857 -0.1756,0.31308 -0.039,0.89987 0.17584,1.11501 0.21477,0.21521 0.68329,0.39118 1.15193,0.35213 0.46865,-0.039 0.74199,0.0392 1.30819,-0.31289 0.56621,-0.35213 0.87259,-0.86139 0.87259,-0.86139"
       inkscape:connector-curvature="0" /><path
       id="path3404"
       style="fill:none;stroke:#7a7f81;stroke-width:0.8869161;stroke-linecap:butt;stroke-linejoin:round;stroke-miterlimit:22.92558479;stroke-opacity:1;stroke-dasharray:none"
       d="m 178.1869,174.4809 0,0.25438"
       inkscape:connector-curvature="0" /><path
       id="path3406"
       style="fill:none;stroke:#7a7f81;stroke-width:0.8869161;stroke-linecap:butt;stroke-linejoin:round;stroke-miterlimit:22.92558479;stroke-opacity:1;stroke-dasharray:none"
       d="m 184.2592,174.45017 0,0.25438"
       inkscape:connector-curvature="0" /><path
       id="path3408"
       style="fill:none;stroke:#7a7f81;stroke-width:0.8869161;stroke-linecap:butt;stroke-linejoin:round;stroke-miterlimit:22.92558479;stroke-opacity:1;stroke-dasharray:none"
       d="m 182.79488,171.89724 c 0,0 -0.15632,-0.72371 -0.76151,-0.88015 -0.60294,-0.15576 -2.46288,-0.40889 -2.4212,0.72371 0.0653,1.76926 3.37802,0.41527 3.37802,1.99542 0,0.6652 -0.35163,1.09568 -1.2107,1.15425 -0.85907,0.0585 -1.58159,-0.0782 -1.87446,-0.25438 -0.29286,-0.17616 -0.39023,-0.3913 -0.46845,-0.82165"
       inkscape:connector-curvature="0" /><path
       id="path3410"
       style="fill:none;stroke:#7a7f81;stroke-width:0.8869161;stroke-linecap:butt;stroke-linejoin:round;stroke-miterlimit:22.92558479;stroke-opacity:1;stroke-dasharray:none"
       d="m 169.59577,175.82939 c 0,0 0.41007,-0.17597 0.44912,-0.50857 0.0391,-0.3326 0.0585,-1.07603 0.0585,-1.07603 0,0 -0.0974,-0.17597 -0.21464,-0.0195 -0.11721,0.15644 -0.24743,0.57653 -0.0392,0.76964 0.20826,0.19318 0.2393,-0.33736 0.2393,-0.33736"
       inkscape:connector-curvature="0" /></g></svg>