<?xml version="1.0" encoding="UTF-8" standalone="no"?>
<!-- Creator: CorelDRAW -->

<svg
   xmlns:dc="http://purl.org/dc/elements/1.1/"
   xmlns:cc="http://creativecommons.org/ns#"
   xmlns:rdf="http://www.w3.org/1999/02/22-rdf-syntax-ns#"
   xmlns:svg="http://www.w3.org/2000/svg"
   xmlns="http://www.w3.org/2000/svg"
   xmlns:sodipodi="http://sodipodi.sourceforge.net/DTD/sodipodi-0.dtd"
   xmlns:inkscape="http://www.inkscape.org/namespaces/inkscape"
   xml:space="preserve"
   width="200mm"
   height="200mm"
   style="shape-rendering:geometricPrecision; text-rendering:geometricPrecision; image-rendering:optimizeQuality; fill-rule:evenodd; clip-rule:evenodd"
   viewBox="0 0 200 200"
   id="svg4236"
   version="1.1"
   inkscape:version="0.48.4 r9939"
   sodipodi:docname="back.svg"><metadata
     id="metadata4253"><rdf:RDF><cc:Work
         rdf:about=""><dc:format>image/svg+xml</dc:format><dc:type
           rdf:resource="http://purl.org/dc/dcmitype/StillImage" /><dc:title></dc:title></cc:Work></rdf:RDF></metadata><sodipodi:namedview
     pagecolor="#ffffff"
     bordercolor="#666666"
     borderopacity="1"
     objecttolerance="10"
     gridtolerance="10"
     guidetolerance="10"
     inkscape:pageopacity="0"
     inkscape:pageshadow="2"
     inkscape:window-width="1920"
     inkscape:window-height="1056"
     id="namedview4251"
     showgrid="false"
     inkscape:zoom="0.33302221"
     inkscape:cx="-174.16256"
     inkscape:cy="354.33072"
     inkscape:window-x="0"
     inkscape:window-y="24"
     inkscape:window-maximized="1"
     inkscape:current-layer="svg4236" /><defs
     id="defs4238"><marker
       inkscape:stockid="TriangleInS"
       orient="auto"
       refY="0.0"
       refX="0.0"
       id="TriangleInS"
       style="overflow:visible"><path
         id="path3936"
         d="M 5.77,0.0 L -2.88,5.0 L -2.88,-5.0 L 5.77,0.0 z "
         style="fill-rule:evenodd;stroke:#000000;stroke-width:1.0pt"
         transform="scale(-0.2)" /></marker><marker
       inkscape:stockid="Arrow1Sstart"
       orient="auto"
       refY="0.0"
       refX="0.0"
       id="Arrow1Sstart"
       style="overflow:visible"><path
         id="path3809"
         d="M 0.0,0.0 L 5.0,-5.0 L -12.5,0.0 L 5.0,5.0 L 0.0,0.0 z "
         style="fill-rule:evenodd;stroke:#000000;stroke-width:1.0pt"
         transform="scale(0.2) translate(6,0)" /></marker><marker
       inkscape:stockid="Arrow2Mstart"
       orient="auto"
       refY="0.0"
       refX="0.0"
       id="Arrow2Mstart"
       style="overflow:visible"><path
         id="path3821"
         style="fill-rule:evenodd;stroke-width:0.62500000;stroke-linejoin:round"
         d="M 8.7185878,4.0337352 L -2.2072895,0.016013256 L 8.7185884,-4.0017078 C 6.9730900,-1.6296469 6.9831476,1.6157441 8.7185878,4.0337352 z "
         transform="scale(0.6) translate(0,0)" /></marker><marker
       inkscape:stockid="Arrow2Lstart"
       orient="auto"
       refY="0.0"
       refX="0.0"
       id="Arrow2Lstart"
       style="overflow:visible"><path
         id="path3815"
         style="fill-rule:evenodd;stroke-width:0.62500000;stroke-linejoin:round"
         d="M 8.7185878,4.0337352 L -2.2072895,0.016013256 L 8.7185884,-4.0017078 C 6.9730900,-1.6296469 6.9831476,1.6157441 8.7185878,4.0337352 z "
         transform="scale(1.1) translate(1,0)" /></marker><style
       type="text/css"
       id="style4240">
    .fil4 {fill:#28166F}
    .fil2 {fill:#DA251D}
    .fil1 {fill:white}
    .fil0 {fill:#7ED3EB}
    .fil3 {fill:#1F1A17;fill-rule:nonzero}
   </style><marker
       inkscape:stockid="TriangleInS"
       orient="auto"
       refY="0"
       refX="0"
       id="TriangleInS-9"
       style="overflow:visible"><path
         inkscape:connector-curvature="0"
         id="path3936-0"
         d="m 5.77,0 -8.65,5 0,-10 8.65,5 z"
         style="fill-rule:evenodd;stroke:#000000;stroke-width:1pt"
         transform="scale(-0.2,-0.2)" /></marker></defs><path
     style="fill:#7ed3eb"
     inkscape:connector-curvature="0"
     id="path4244"
     d="m 21.0765,2.5313 157.847,0 c 10.7216,0 19.4937,8.7721 19.4937,19.4937 l 0,155.95 c 0,10.7216 -8.7721,19.4937 -19.4937,19.4937 l -157.847,0 c -10.7216,0 -19.4937,-8.7721 -19.4937,-19.4937 l 0,-155.95 c 0,-10.7216 8.7721,-19.4937 19.4937,-19.4937 z"
     class="fil0" /><g
     id="g5203"
     style="fill:#28166f;fill-opacity:1;stroke:none"
     transform="matrix(0.74629922,0,0,0.74629922,381.66496,-109.06494)"><path
       style="font-size:medium;font-style:normal;font-variant:normal;font-weight:normal;font-stretch:normal;text-indent:0;text-align:start;text-decoration:none;line-height:normal;letter-spacing:normal;word-spacing:normal;text-transform:none;direction:ltr;block-progression:tb;writing-mode:lr-tb;text-anchor:start;baseline-shift:baseline;color:#000000;fill:#28166f;fill-opacity:1;stroke:none;stroke-width:100.09999847;marker:none;visibility:visible;display:inline;overflow:visible;enable-background:accumulate;font-family:Sans;-inkscape-font-specification:Sans"
       d="m -379.82701,168.03687 c -38.20377,0.41263 -75.82075,30.65736 -75.82075,75.18576 l 28.2487,0 c 0,-29.45893 26.01456,-47.86676 50.13852,-46.90181 12.06198,0.48248 23.07906,5.34811 31.54714,17.04799 8.4681,11.69988 14.49857,31.29328 12.13555,61.81548 l 28.16934,2.17841 c 2.72172,-35.15577 -3.95854,-61.96008 -17.41842,-80.55681 -13.45988,-18.59673 -33.58704,-27.9274 -53.30472,-28.71611 -1.23235,-0.0493 -2.46295,-0.0662 -3.69536,-0.0529 z"
       id="path3791"
       inkscape:connector-curvature="0" /><path
       style="fill:#28166f;fill-opacity:1;fill-rule:evenodd;stroke:none"
       d="m -441.52542,275.82135 -28.25044,-48.87327 56.50089,0 -28.25045,48.87327 z"
       id="path5209"
       inkscape:connector-curvature="0" /></g><g
     id="g5195"
     style="fill:#28166f;fill-opacity:1;stroke:none"
     transform="matrix(0.74629922,0,0,0.74629922,387.56238,-128.02093)"><path
       style="font-size:medium;font-style:normal;font-variant:normal;font-weight:normal;font-stretch:normal;text-indent:0;text-align:start;text-decoration:none;line-height:normal;letter-spacing:normal;word-spacing:normal;text-transform:none;direction:ltr;block-progression:tb;writing-mode:lr-tb;text-anchor:start;baseline-shift:baseline;color:#000000;fill:#28166f;fill-opacity:1;stroke:none;stroke-width:28.2504425;marker:none;visibility:visible;display:inline;overflow:visible;enable-background:accumulate;font-family:Sans;-inkscape-font-specification:Sans"
       d="m -465,306.09375 c -2.72173,35.15577 3.94638,61.96577 17.40625,80.5625 13.45987,18.59673 33.59482,27.93004 53.3125,28.71875 39.43536,1.57741 79.53125,-29.19145 79.53125,-75.15625 l -28.25,0 c 0,29.45893 -26.03229,47.87121 -50.15625,46.90625 -12.06198,-0.48248 -23.06315,-5.33137 -31.53125,-17.03125 -8.4681,-11.69988 -14.51926,-31.2903 -12.15625,-61.8125 L -465,306.09375 z"
       id="path3791-7"
       inkscape:connector-curvature="0" /><path
       style="fill:#28166f;fill-opacity:1;fill-rule:evenodd;stroke:none"
       d="m -328.88825,307.62969 28.25044,48.87326 -56.50088,0 28.25044,-48.87326 z"
       id="path5201"
       inkscape:connector-curvature="0" /></g></svg>