<?xml version="1.0" encoding="UTF-8" standalone="no"?>
<!-- Creator: CorelDRAW -->

<svg
   xmlns:dc="http://purl.org/dc/elements/1.1/"
   xmlns:cc="http://creativecommons.org/ns#"
   xmlns:rdf="http://www.w3.org/1999/02/22-rdf-syntax-ns#"
   xmlns:svg="http://www.w3.org/2000/svg"
   xmlns="http://www.w3.org/2000/svg"
   xmlns:sodipodi="http://sodipodi.sourceforge.net/DTD/sodipodi-0.dtd"
   xmlns:inkscape="http://www.inkscape.org/namespaces/inkscape"
   xml:space="preserve"
   width="200mm"
   height="200mm"
   style="shape-rendering:geometricPrecision; text-rendering:geometricPrecision; image-rendering:optimizeQuality; fill-rule:evenodd; clip-rule:evenodd"
   viewBox="0 0 200 200"
   id="svg3042"
   version="1.1"
   inkscape:version="0.48.4 r9939"
   sodipodi:docname="logo.svg"><metadata
     id="metadata3059"><rdf:RDF><cc:Work
         rdf:about=""><dc:format>image/svg+xml</dc:format><dc:type
           rdf:resource="http://purl.org/dc/dcmitype/StillImage" /><dc:title></dc:title></cc:Work></rdf:RDF></metadata><sodipodi:namedview
     pagecolor="#ffffff"
     bordercolor="#666666"
     borderopacity="1"
     objecttolerance="10"
     gridtolerance="10"
     guidetolerance="10"
     inkscape:pageopacity="0"
     inkscape:pageshadow="2"
     inkscape:window-width="1920"
     inkscape:window-height="1056"
     id="namedview3057"
     showgrid="false"
     inkscape:zoom="0.33302221"
     inkscape:cx="-95.367813"
     inkscape:cy="-552.29449"
     inkscape:window-x="0"
     inkscape:window-y="24"
     inkscape:window-maximized="1"
     inkscape:current-layer="svg3042" /><defs
     id="defs3044"><style
       type="text/css"
       id="style3046">
    .fil4 {fill:#28166F}
    .fil2 {fill:#DA251D}
    .fil1 {fill:white}
    .fil0 {fill:#7ED3EB}
    .fil3 {fill:#1F1A17;fill-rule:nonzero}
   </style></defs><path
     style="fill:#7ed3eb"
     inkscape:connector-curvature="0"
     id="path3050"
     d="m 21.0765,2.5313 157.847,0 c 10.7216,0 19.4937,8.7721 19.4937,19.4937 l 0,155.95 c 0,10.7216 -8.7721,19.4937 -19.4937,19.4937 l -157.847,0 c -10.7216,0 -19.4937,-8.7721 -19.4937,-19.4937 l 0,-155.95 c 0,-10.7216 8.7721,-19.4937 19.4937,-19.4937 z"
     class="fil0" /><g
     style="font-size:24.03460312px;font-style:normal;font-weight:normal;line-height:125%;letter-spacing:0px;word-spacing:0px;fill:#ffffff;fill-opacity:1;stroke:none;font-family:Sans"
     id="text3081" /><g
     id="g3180"
     transform="translate(14.40678,-202.54237)"><path
       id="path3061"
       d="m 684.63901,1109.5356 c 0,160.0358 -129.73465,289.7705 -289.77045,289.7705 -160.0358,0 -289.77045,-129.7347 -289.77045,-289.7705 0,-160.03575 129.73465,-289.7704 289.77045,-289.7704 160.0358,0 289.77045,129.73465 289.77045,289.7704 z"
       style="fill:#4d4d4d;fill-opacity:1;stroke:none"
       transform="matrix(0.28222221,0,0,0.28222221,-28.601694,-11.652547)"
       inkscape:connector-curvature="0" /><path
       inkscape:connector-curvature="0"
       id="path3087"
       d="m 82.838982,223.30509 0,156.77966"
       style="fill:none;stroke:#000000;stroke-width:0.28222221px;stroke-linecap:butt;stroke-linejoin:miter;stroke-opacity:1" /><path
       inkscape:connector-curvature="0"
       id="path3087-3"
       d="m 3.899924,301.93273 156.779656,0"
       style="fill:none;stroke:#000000;stroke-width:0.28222221px;stroke-linecap:butt;stroke-linejoin:miter;stroke-opacity:1" /><path
       inkscape:transform-center-y="0.8302288"
       inkscape:transform-center-x="-1.7601075"
       inkscape:connector-curvature="0"
       id="path3087-6"
       d="M 116.56659,230.60733 49.681127,372.40365"
       style="fill:none;stroke:#000000;stroke-width:0.28222221px;stroke-linecap:butt;stroke-linejoin:miter;stroke-opacity:1" /><path
       inkscape:transform-center-x="0.35949744"
       inkscape:transform-center-y="0.762095"
       inkscape:connector-curvature="0"
       id="path3087-3-8"
       d="M 11.627503,268.04353 153.42381,334.92899"
       style="fill:none;stroke:#000000;stroke-width:0.28222221px;stroke-linecap:butt;stroke-linejoin:miter;stroke-opacity:1" /><path
       inkscape:connector-curvature="0"
       id="path3087-0"
       d="M 145.9542,256.25013 18.24226,347.18705"
       style="fill:none;stroke:#000000;stroke-width:0.28222221px;stroke-linecap:butt;stroke-linejoin:miter;stroke-opacity:1" /><path
       inkscape:connector-curvature="0"
       id="path3087-3-6"
       d="M 36.117484,237.55316 127.0544,365.26509"
       style="fill:none;stroke:#000000;stroke-width:0.28222221px;stroke-linecap:butt;stroke-linejoin:miter;stroke-opacity:1" /><path
       id="path3061-2"
       d="m 684.63901,1109.5356 c 0,160.0358 -129.73465,289.7705 -289.77045,289.7705 -160.0358,0 -289.77045,-129.7347 -289.77045,-289.7705 0,-160.03575 129.73465,-289.7704 289.77045,-289.7704 160.0358,0 289.77045,129.73465 289.77045,289.7704 z"
       style="fill:#333333;fill-opacity:1;stroke:none"
       transform="matrix(0.22957972,0,0,0.22957972,-7.8148305,46.75617)"
       inkscape:connector-curvature="0" /><path
       id="path3163"
       style="font-size:24.03460312px;font-style:normal;font-variant:normal;font-weight:500;font-stretch:normal;line-height:125%;letter-spacing:0px;word-spacing:0px;fill:#ffffff;fill-opacity:1;fill-rule:evenodd;stroke:none;font-family:KacstNaskh;-inkscape-font-specification:KacstNaskh Medium"
       d="m 55.953855,294.87601 c -1.220513,10e-6 -2.139805,0.60244 -2.757877,1.80729 -0.610258,1.19705 -0.915384,3.00042 -0.91538,5.41013 -4e-6,2.4019 0.305122,4.20528 0.91538,5.41013 0.618072,1.19704 1.537364,1.79556 2.757877,1.79556 1.228322,0 2.147614,-0.59852 2.757877,-1.79556 0.618066,-1.20485 0.927105,-3.00823 0.927116,-5.41013 -1.1e-5,-2.40971 -0.30905,-4.21308 -0.927116,-5.41013 -0.610263,-1.20485 -1.529555,-1.80728 -2.757877,-1.80729 m 0,-1.87771 c 1.963755,2e-5 3.462005,0.77849 4.494753,2.3354 1.040547,1.54912 1.560827,3.80236 1.560841,6.75973 -1.4e-5,2.94957 -0.520294,5.20281 -1.560841,6.75973 -1.032748,1.54911 -2.530998,2.32366 -4.494753,2.32366 -1.96377,0 -3.465931,-0.77455 -4.506488,-2.32366 -1.032739,-1.55692 -1.549107,-3.81016 -1.549105,-6.75973 -2e-6,-2.95737 0.516366,-5.21061 1.549105,-6.75973 1.040557,-1.55691 2.542718,-2.33538 4.506488,-2.3354"
       inkscape:connector-curvature="0" /><path
       id="path3165"
       style="font-size:24.03460312px;font-style:normal;font-variant:normal;font-weight:500;font-stretch:normal;line-height:125%;letter-spacing:0px;word-spacing:0px;fill:#ffffff;fill-opacity:1;fill-rule:evenodd;stroke:none;font-family:KacstNaskh;-inkscape-font-specification:KacstNaskh Medium"
       d="m 71.257138,294.87601 c -1.220514,10e-6 -2.139805,0.60244 -2.757877,1.80729 -0.610258,1.19705 -0.915384,3.00042 -0.91538,5.41013 -4e-6,2.4019 0.305122,4.20528 0.91538,5.41013 0.618072,1.19704 1.537363,1.79556 2.757877,1.79556 1.228322,0 2.147613,-0.59852 2.757877,-1.79556 0.618066,-1.20485 0.927104,-3.00823 0.927116,-5.41013 -1.2e-5,-2.40971 -0.30905,-4.21308 -0.927116,-5.41013 -0.610264,-1.20485 -1.529555,-1.80728 -2.757877,-1.80729 m 0,-1.87771 c 1.963755,2e-5 3.462004,0.77849 4.494752,2.3354 1.040548,1.54912 1.560828,3.80236 1.560841,6.75973 -1.3e-5,2.94957 -0.520293,5.20281 -1.560841,6.75973 -1.032748,1.54911 -2.530997,2.32366 -4.494752,2.32366 -1.963771,0 -3.465932,-0.77455 -4.506488,-2.32366 -1.032739,-1.55692 -1.549107,-3.81016 -1.549105,-6.75973 -2e-6,-2.95737 0.516366,-5.21061 1.549105,-6.75973 1.040556,-1.55691 2.542717,-2.33538 4.506488,-2.3354"
       inkscape:connector-curvature="0" /><path
       id="path3167"
       style="font-size:24.03460312px;font-style:normal;font-variant:normal;font-weight:500;font-stretch:normal;line-height:125%;letter-spacing:0px;word-spacing:0px;fill:#ffffff;fill-opacity:1;fill-rule:evenodd;stroke:none;font-family:KacstNaskh;-inkscape-font-specification:KacstNaskh Medium"
       d="m 81.73707,307.85563 2.476221,0 0,2.98086 -2.476221,0 0,-2.98086 m 0,-9.44719 2.476221,0 0,2.98085 -2.476221,0 0,-2.98085"
       inkscape:connector-curvature="0" /><path
       id="path3169"
       style="font-size:24.03460312px;font-style:normal;font-variant:normal;font-weight:500;font-stretch:normal;line-height:125%;letter-spacing:0px;word-spacing:0px;fill:#ffffff;fill-opacity:1;fill-rule:evenodd;stroke:none;font-family:KacstNaskh;-inkscape-font-specification:KacstNaskh Medium"
       d="m 94.681486,294.87601 c -1.220514,10e-6 -2.139805,0.60244 -2.757877,1.80729 -0.610258,1.19705 -0.915384,3.00042 -0.91538,5.41013 -4e-6,2.4019 0.305122,4.20528 0.91538,5.41013 0.618072,1.19704 1.537363,1.79556 2.757877,1.79556 1.228322,0 2.147613,-0.59852 2.757877,-1.79556 0.618066,-1.20485 0.927104,-3.00823 0.927116,-5.41013 -1.2e-5,-2.40971 -0.30905,-4.21308 -0.927116,-5.41013 -0.610264,-1.20485 -1.529555,-1.80728 -2.757877,-1.80729 m 0,-1.87771 c 1.963755,2e-5 3.462004,0.77849 4.494752,2.3354 1.040552,1.54912 1.560832,3.80236 1.560842,6.75973 -1e-5,2.94957 -0.52029,5.20281 -1.560842,6.75973 -1.032748,1.54911 -2.530997,2.32366 -4.494752,2.32366 -1.963771,0 -3.465932,-0.77455 -4.506488,-2.32366 -1.032739,-1.55692 -1.549107,-3.81016 -1.549106,-6.75973 -10e-7,-2.95737 0.516367,-5.21061 1.549106,-6.75973 1.040556,-1.55691 2.542717,-2.33538 4.506488,-2.3354"
       inkscape:connector-curvature="0" /><path
       id="path3171"
       style="font-size:24.03460312px;font-style:normal;font-variant:normal;font-weight:500;font-stretch:normal;line-height:125%;letter-spacing:0px;word-spacing:0px;fill:#ffffff;fill-opacity:1;fill-rule:evenodd;stroke:none;font-family:KacstNaskh;-inkscape-font-specification:KacstNaskh Medium"
       d="m 105.32572,308.84143 3.87276,0 0,-13.3669 -4.2131,0.84496 0,-2.15936 4.18963,-0.84496 2.3706,0 0,15.52626 3.87276,0 0,1.99506 -10.09265,0 0,-1.99506"
       inkscape:connector-curvature="0" /><path
       id="rect3085"
       d="m 75.423729,226.48305 14.830508,0 0,14.83051 -14.830508,0 z"
       style="fill:#d45500;fill-opacity:1;stroke:none"
       inkscape:connector-curvature="0" /></g></svg>