<?xml version="1.0" encoding="UTF-8"?>
<!DOCTYPE svg PUBLIC "-//W3C//DTD SVG 1.1//EN" "http://www.w3.org/Graphics/SVG/1.1/DTD/svg11.dtd">
<!-- Creator: CorelDRAW -->
<svg xmlns="http://www.w3.org/2000/svg" xml:space="preserve" width="200mm" height="200mm" style="shape-rendering:geometricPrecision; text-rendering:geometricPrecision; image-rendering:optimizeQuality; fill-rule:evenodd; clip-rule:evenodd"
viewBox="0 0 200 200"
 xmlns:xlink="http://www.w3.org/1999/xlink">
 <defs>
  <style type="text/css">
   <![CDATA[
    .fil4 {fill:#28166F}
    .fil2 {fill:#DA251D}
    .fil1 {fill:white}
    .fil0 {fill:#7ED3EB}
    .fil3 {fill:#1F1A17;fill-rule:nonzero}
   ]]>
  </style>
 </defs>
 <g id="Vrstva_x0020_1">
  <metadata id="CorelCorpID_0Corel-Layer"/>
  <path class="fil0" d="M21.0765 2.5313l157.847 0c10.7216,0 19.4937,8.7721 19.4937,19.4937l0 155.95c0,10.7216 -8.7721,19.4937 -19.4937,19.4937l-157.847 0c-10.7216,0 -19.4937,-8.7721 -19.4937,-19.4937l0 -155.95c0,-10.7216 8.7721,-19.4937 19.4937,-19.4937z"/>
  <g id="_125105200">
   <path id="_125105704" class="fil1" d="M33.4937 92.4692l114.143 0c4.2116,0 7.6574,3.4458 7.6574,7.6575l0 61.2599c0,4.2116 -3.4458,7.6574 -7.6574,7.6574l-114.143 0c-4.2117,0 -7.6575,-3.4458 -7.6575,-7.6574l0 -61.2599c0,-4.2117 3.4458,-7.6575 7.6575,-7.6575z"/>
   <path id="_125105512" class="fil2" d="M18.6579 175.242c48.2198,0 96.4396,0 144.66,0 2.6008,-28.0992 5.9895,-56.2865 9.6983,-84.5099 -21.2298,-7.9132 -27.9316,-36.9922 -27.2839,-76.7786 -8.6006,-0.8547 -17.2011,-1.7094 -25.8016,-2.5641 -3.5127,15.6647 -11.664,30.1442 -28.9417,30.7986 -17.2777,0.6543 -27.3928,-19.469 -28.9427,-30.7986 -8.601,0.8547 -17.2019,1.7094 -25.8028,2.5641 0.1782,40.6101 -6.9974,69.31 -27.2821,76.7786 3.7262,28.0621 7.3159,56.1539 9.697,84.5099zm20.8718 -78.0498l102.917 0c3.7494,0 6.8171,3.0677 6.8171,6.8171l0 54.5374c0,3.7494 -3.0677,6.8171 -6.8171,6.8171l-102.917 0c-3.7494,0 -6.8171,-3.0677 -6.8171,-6.8171l0 -54.5374c0,-3.7494 3.0677,-6.8171 6.8171,-6.8171z"/>
   <polygon id="_125097568" class="fil3" points="87.4491,116.161 98.9219,116.161 98.9219,156.428 91.3076,156.428 91.3076,123.364 83.0207,123.364 "/>
   <polygon id="_125106352" class="fil4" points="151.198,188.611 171.118,188.611 171.118,168.69 191.039,168.69 191.039,148.77 171.118,148.77 171.118,128.849 151.198,128.849 151.198,148.77 131.277,148.77 131.277,168.69 151.198,168.69 "/>
  </g>
 </g>
</svg>
