<?xml version="1.0" encoding="UTF-8" standalone="no"?>
<!-- Creator: CorelDRAW -->

<svg
   xmlns:dc="http://purl.org/dc/elements/1.1/"
   xmlns:cc="http://creativecommons.org/ns#"
   xmlns:rdf="http://www.w3.org/1999/02/22-rdf-syntax-ns#"
   xmlns:svg="http://www.w3.org/2000/svg"
   xmlns="http://www.w3.org/2000/svg"
   xmlns:sodipodi="http://sodipodi.sourceforge.net/DTD/sodipodi-0.dtd"
   xmlns:inkscape="http://www.inkscape.org/namespaces/inkscape"
   xml:space="preserve"
   width="200mm"
   height="200mm"
   style="shape-rendering:geometricPrecision; text-rendering:geometricPrecision; image-rendering:optimizeQuality; fill-rule:evenodd; clip-rule:evenodd"
   viewBox="0 0 200 200"
   id="svg3042"
   version="1.1"
   inkscape:version="0.48.4 r9939"
   sodipodi:docname="vysledky.svg"><metadata
     id="metadata3059"><rdf:RDF><cc:Work
         rdf:about=""><dc:format>image/svg+xml</dc:format><dc:type
           rdf:resource="http://purl.org/dc/dcmitype/StillImage" /><dc:title></dc:title></cc:Work></rdf:RDF></metadata><sodipodi:namedview
     pagecolor="#ffffff"
     bordercolor="#666666"
     borderopacity="1"
     objecttolerance="10"
     gridtolerance="10"
     guidetolerance="10"
     inkscape:pageopacity="0"
     inkscape:pageshadow="2"
     inkscape:window-width="1920"
     inkscape:window-height="1056"
     id="namedview3057"
     showgrid="false"
     inkscape:zoom="0.47096453"
     inkscape:cx="-15.544695"
     inkscape:cy="-162.4994"
     inkscape:window-x="0"
     inkscape:window-y="24"
     inkscape:window-maximized="1"
     inkscape:current-layer="svg3042" /><defs
     id="defs3044"><style
       type="text/css"
       id="style3046">
    .fil4 {fill:#28166F}
    .fil2 {fill:#DA251D}
    .fil1 {fill:white}
    .fil0 {fill:#7ED3EB}
    .fil3 {fill:#1F1A17;fill-rule:nonzero}
   </style></defs><path
     style="fill:#7ed3eb"
     inkscape:connector-curvature="0"
     id="path3050"
     d="m 21.0765,2.5313 157.847,0 c 10.7216,0 19.4937,8.7721 19.4937,19.4937 l 0,155.95 c 0,10.7216 -8.7721,19.4937 -19.4937,19.4937 l -157.847,0 c -10.7216,0 -19.4937,-8.7721 -19.4937,-19.4937 l 0,-155.95 c 0,-10.7216 8.7721,-19.4937 19.4937,-19.4937 z"
     class="fil0" /><g
     style="font-size:24.03460312px;font-style:normal;font-weight:normal;line-height:125%;letter-spacing:0px;word-spacing:0px;fill:#ffffff;fill-opacity:1;stroke:none;font-family:Sans"
     id="text3081" /><rect
     style="fill:#ffffff;fill-opacity:1;stroke:none"
     id="rect4119"
     width="162.99411"
     height="40.748528"
     x="17.977291"
     y="89.812866"
     rx="1.5929874"
     ry="1.5929874" /><path
     sodipodi:type="arc"
     style="fill:#000000;fill-opacity:1;stroke:none"
     id="path4121"
     sodipodi:cx="336.5434"
     sodipodi:cy="898.69696"
     sodipodi:rx="24.417974"
     sodipodi:ry="24.417974"
     d="m 360.96137,898.69696 a 24.417974,24.417974 0 1 1 -48.83595,0 24.417974,24.417974 0 1 1 48.83595,0 z"
     transform="matrix(0.40492752,0,0,0.40492752,-34.703989,-253.71999)" /><path
     sodipodi:type="arc"
     style="fill:#000000;fill-opacity:1;fill-rule:evenodd;stroke:none"
     id="path4121-2"
     sodipodi:cx="336.5434"
     sodipodi:cy="898.69696"
     sodipodi:rx="24.417974"
     sodipodi:ry="24.417974"
     d="m 360.96137,898.69696 a 24.417974,24.417974 0 1 1 -48.83595,0 24.417974,24.417974 0 1 1 48.83595,0 z"
     transform="matrix(0.40492752,0,0,0.40492752,-66.613681,-253.71999)" /><path
     sodipodi:type="arc"
     style="fill:#000000;fill-opacity:1;fill-rule:evenodd;stroke:none"
     id="path4121-7"
     sodipodi:cx="336.5434"
     sodipodi:cy="898.69696"
     sodipodi:rx="24.417974"
     sodipodi:ry="24.417974"
     d="m 360.96137,898.69696 a 24.417974,24.417974 0 1 1 -48.83595,0 24.417974,24.417974 0 1 1 48.83595,0 z"
     transform="matrix(0.40492752,0,0,0.40492752,-98.523372,-253.71999)" /><path
     sodipodi:type="arc"
     style="fill:#000000;fill-opacity:1;fill-rule:evenodd;stroke:none"
     id="path4121-8"
     sodipodi:cx="336.5434"
     sodipodi:cy="898.69696"
     sodipodi:rx="24.417974"
     sodipodi:ry="24.417974"
     d="m 360.96137,898.69696 a 24.417974,24.417974 0 1 1 -48.83595,0 24.417974,24.417974 0 1 1 48.83595,0 z"
     transform="matrix(0.40492752,0,0,0.40492752,-2.7943033,-253.71999)" /><path
     sodipodi:type="arc"
     style="fill:#000000;fill-opacity:1;fill-rule:evenodd;stroke:none"
     id="path4121-5"
     sodipodi:cx="336.5434"
     sodipodi:cy="898.69696"
     sodipodi:rx="24.417974"
     sodipodi:ry="24.417974"
     d="m 360.96137,898.69696 a 24.417974,24.417974 0 1 1 -48.83595,0 24.417974,24.417974 0 1 1 48.83595,0 z"
     transform="matrix(0.40492752,0,0,0.40492752,29.115395,-253.71999)" /></svg>