<?xml version="1.0" encoding="UTF-8" standalone="no"?>
<!-- Creator: CorelDRAW -->

<svg
   xmlns:dc="http://purl.org/dc/elements/1.1/"
   xmlns:cc="http://creativecommons.org/ns#"
   xmlns:rdf="http://www.w3.org/1999/02/22-rdf-syntax-ns#"
   xmlns:svg="http://www.w3.org/2000/svg"
   xmlns="http://www.w3.org/2000/svg"
   xmlns:sodipodi="http://sodipodi.sourceforge.net/DTD/sodipodi-0.dtd"
   xmlns:inkscape="http://www.inkscape.org/namespaces/inkscape"
   xml:space="preserve"
   width="200mm"
   height="200mm"
   style="shape-rendering:geometricPrecision; text-rendering:geometricPrecision; image-rendering:optimizeQuality; fill-rule:evenodd; clip-rule:evenodd"
   viewBox="0 0 200 200"
   id="svg3042"
   version="1.1"
   inkscape:version="0.48.4 r9939"
   sodipodi:docname="mereni.svg"><metadata
     id="metadata3059"><rdf:RDF><cc:Work
         rdf:about=""><dc:format>image/svg+xml</dc:format><dc:type
           rdf:resource="http://purl.org/dc/dcmitype/StillImage" /><dc:title></dc:title></cc:Work></rdf:RDF></metadata><sodipodi:namedview
     pagecolor="#ffffff"
     bordercolor="#666666"
     borderopacity="1"
     objecttolerance="10"
     gridtolerance="10"
     guidetolerance="10"
     inkscape:pageopacity="0"
     inkscape:pageshadow="2"
     inkscape:window-width="1920"
     inkscape:window-height="1056"
     id="namedview3057"
     showgrid="false"
     inkscape:zoom="0.47096453"
     inkscape:cx="-15.544695"
     inkscape:cy="-162.4994"
     inkscape:window-x="0"
     inkscape:window-y="24"
     inkscape:window-maximized="1"
     inkscape:current-layer="svg3042" /><defs
     id="defs3044"><style
       type="text/css"
       id="style3046">
    .fil4 {fill:#28166F}
    .fil2 {fill:#DA251D}
    .fil1 {fill:white}
    .fil0 {fill:#7ED3EB}
    .fil3 {fill:#1F1A17;fill-rule:nonzero}
   </style></defs><path
     style="fill:#7ed3eb"
     inkscape:connector-curvature="0"
     id="path3050"
     d="m 21.0765,2.5313 157.847,0 c 10.7216,0 19.4937,8.7721 19.4937,19.4937 l 0,155.95 c 0,10.7216 -8.7721,19.4937 -19.4937,19.4937 l -157.847,0 c -10.7216,0 -19.4937,-8.7721 -19.4937,-19.4937 l 0,-155.95 c 0,-10.7216 8.7721,-19.4937 19.4937,-19.4937 z"
     class="fil0" /><g
     style="font-size:24.03460312px;font-style:normal;font-weight:normal;line-height:125%;letter-spacing:0px;word-spacing:0px;fill:#ffffff;fill-opacity:1;stroke:none;font-family:Sans"
     id="text3081" /><g
     id="g4073"
     transform="translate(-1.4580541,0)"><path
       style="fill:#d45500;fill-opacity:1;stroke:none"
       d="m 18.566507,138.00932 48.496756,0 c 2.318309,0 4.184674,1.86637 4.184674,4.18468 l 0,20.0637 c 0,2.31831 -1.866365,4.18468 -4.184674,4.18468 l -48.496756,0 c -2.318309,0 -4.184674,-1.86637 -4.184674,-4.18468 l 0,-20.0637 c 0,-2.31831 1.866365,-4.18468 4.184674,-4.18468 z"
       id="rect3989" /><path
       style="fill:#d45500;fill-opacity:1;fill-rule:evenodd;stroke:none"
       d="m 77.209676,114.90746 48.496754,0 c 2.31831,0 4.18468,1.86637 4.18468,4.18468 l 0,43.16556 c 0,2.31831 -1.86637,4.18468 -4.18468,4.18468 l -48.496754,0 c -2.31831,0 -4.184674,-1.86637 -4.184674,-4.18468 l 0,-43.16556 c 0,-2.31831 1.866364,-4.18468 4.184674,-4.18468 z"
       id="rect3989-7" /><path
       style="fill:#d45500;fill-opacity:1;fill-rule:evenodd;stroke:none"
       d="m 135.85284,146.00612 48.49676,0 c 2.31831,0 4.18468,1.86636 4.18468,4.18467 l 0,12.06691 c 0,2.31831 -1.86637,4.18468 -4.18468,4.18468 l -48.49676,0 c -2.31831,0 -4.18467,-1.86637 -4.18467,-4.18468 l 0,-12.06691 c 0,-2.31831 1.86636,-4.18467 4.18467,-4.18467 z"
       id="rect3989-7-3" /><g
       style="font-size:21.16707993px;font-style:normal;font-weight:normal;line-height:125%;letter-spacing:0px;word-spacing:0px;fill:#000000;fill-opacity:1;stroke:none;font-family:Sans"
       id="text4027"><path
         d="m 97.163666,141.13924 3.410714,0 0,-11.77212 -3.710443,0.74415 0,-1.90173 3.689773,-0.74415 2.08776,0 0,13.67385 3.41072,0 0,1.75703 -8.888524,0 0,-1.75703"
         style=""
         id="path4088" /></g><g
       transform="scale(1.0192702,0.98109412)"
       style="font-size:14.74222183px;font-style:normal;font-weight:normal;line-height:125%;letter-spacing:0px;word-spacing:0px;fill:#000000;fill-opacity:1;fill-rule:evenodd;stroke:none;font-family:Sans"
       id="text4027-7"><path
         d="m 40.342612,157.96094 5.074837,0 0,1.22372 -6.824036,0 0,-1.22372 c 0.551872,-0.57107 1.302899,-1.33649 2.253084,-2.29627 0.954977,-0.96458 1.554839,-1.58603 1.799587,-1.86437 0.465488,-0.52308 0.789414,-0.96458 0.971778,-1.3245 0.18715,-0.36471 0.280729,-0.72223 0.280735,-1.07256 -6e-6,-0.57106 -0.20156,-1.03655 -0.604661,-1.39648 -0.398314,-0.3599 -0.918994,-0.53986 -1.562042,-0.53987 -0.455899,1e-5 -0.938188,0.0792 -1.446869,0.23754 -0.503886,0.15838 -1.043762,0.39832 -1.619628,0.71984 l 0,-1.46846 c 0.585464,-0.23514 1.132538,-0.4127 1.641223,-0.53268 0.508681,-0.11996 0.974173,-0.17995 1.39648,-0.17996 1.11334,1e-5 2.001136,0.27835 2.66339,0.83501 0.662241,0.55668 0.993365,1.30051 0.993372,2.23149 -7e-6,0.4415 -0.08399,0.86141 -0.251942,1.25971 -0.16317,0.39351 -0.463101,0.85901 -0.899794,1.39648 -0.119979,0.13917 -0.501491,0.54228 -1.144537,1.20932 -0.643058,0.66225 -1.550049,1.59084 -2.720977,2.78576"
         style=""
         id="path4091" /></g><g
       transform="scale(1.0192702,0.98109412)"
       style="font-size:10.55130005px;font-style:normal;font-weight:normal;line-height:125%;letter-spacing:0px;word-spacing:0px;fill:#000000;fill-opacity:1;fill-rule:evenodd;stroke:none;font-family:Sans"
       id="text4027-7-8"><path
         d="m 158.01975,158.80616 c 0.49802,0.10648 0.88614,0.32801 1.16435,0.66461 0.28164,0.3366 0.42246,0.75219 0.42246,1.24678 0,0.75907 -0.26104,1.34639 -0.7831,1.76199 -0.52207,0.41559 -1.26396,0.62339 -2.22567,0.62339 -0.32286,0 -0.65602,-0.0326 -0.99948,-0.0979 -0.34004,-0.0618 -0.69209,-0.15628 -1.05616,-0.28336 l 0,-1.00464 c 0.28851,0.1683 0.6045,0.29538 0.94796,0.38125 0.34347,0.0859 0.70239,0.1288 1.07677,0.1288 0.65259,0 1.1489,-0.1288 1.48893,-0.3864 0.34346,-0.2576 0.5152,-0.63198 0.5152,-1.12314 0,-0.45337 -0.15972,-0.80714 -0.47913,-1.06131 -0.316,-0.2576 -0.75735,-0.3864 -1.32407,-0.3864 l -0.89645,0 0,-0.85523 0.93767,0 c 0.51176,0 0.90331,-0.10132 1.17465,-0.30397 0.27134,-0.20608 0.40701,-0.50146 0.40701,-0.88614 0,-0.39499 -0.14082,-0.69724 -0.42246,-0.90676 -0.27821,-0.21294 -0.67835,-0.31941 -1.20042,-0.31942 -0.28508,1e-5 -0.59076,0.0309 -0.91706,0.0927 -0.32629,0.0618 -0.68521,0.158 -1.07676,0.28851 l 0,-0.92736 c 0.39498,-0.1099 0.76421,-0.19234 1.10768,-0.2473 0.3469,-0.055 0.67319,-0.0824 0.97888,-0.0824 0.78997,1e-5 1.41508,0.18033 1.87533,0.54096 0.46024,0.35721 0.69036,0.8415 0.69036,1.45286 0,0.42591 -0.12193,0.78655 -0.36579,1.08192 -0.24386,0.29196 -0.59077,0.4946 -1.0407,0.60794"
         style=""
         id="path4094" /></g></g></svg>